<svg width="18" height="12" fill="none" xmlns="http://www.w3.org/2000/svg"><path fill-rule="evenodd" clip-rule="evenodd" d="M15.892 2.446h-4.52V1.152h4.52v1.294zm-2.233.726c.68 0 1.29.12 1.834.361.545.24.994.62 1.347 1.139.322.457.529.988.623 1.59.055.353.078.864.069 1.528h-5.683c.034.771.303 1.313.817 1.623.31.193.685.29 1.125.29.462 0 .84-.118 1.13-.353.16-.127.3-.304.421-.53h2.082c-.055.456-.308.92-.755 1.392-.699.747-1.677 1.121-2.935 1.121-1.038 0-1.954-.315-2.746-.946-.796-.63-1.191-1.658-1.191-3.08 0-1.333.358-2.356 1.074-3.068.717-.71 1.645-1.067 2.788-1.067zM5.563.667c1.287.018 2.197.388 2.734 1.108.322.443.483.971.483 1.588 0 .635-.161 1.146-.487 1.533-.183.215-.45.413-.805.592.538.194.943.5 1.22.918.272.418.41.927.41 1.525 0 .616-.157 1.17-.471 1.659a2.892 2.892 0 0 1-1.938 1.341c-.458.094-.954.14-1.49.14H.467V.667h5.096zm-.699 1.806H2.568v2.295h2.565c.457 0 .829-.086 1.116-.258.285-.172.429-.477.429-.913 0-.486-.19-.806-.566-.962-.328-.108-.743-.162-1.248-.162zm8.796 2.359c-.522 0-.93.146-1.218.44-.288.292-.47.69-.543 1.19h3.515c-.038-.534-.22-.938-.543-1.217-.327-.276-.73-.413-1.212-.413zM5.165 6.49H2.568v2.775H5.13c.458 0 .815-.062 1.069-.183.462-.228.693-.66.693-1.3 0-.542-.223-.913-.671-1.116-.25-.113-.603-.172-1.055-.176z" fill="#fff"/></svg>