<svg width="32" height="33" fill="none" xmlns="http://www.w3.org/2000/svg"><path fill-rule="evenodd" clip-rule="evenodd" d="M0 16.643c0-8.837 7.163-16 16-16s16 7.163 16 16c0 8.836-7.163 16-16 16s-16-7.164-16-16z" fill="url(#a)"/><path fill-rule="evenodd" clip-rule="evenodd" d="M20.556 11.064a1.024 1.024 0 1 0 0 2.048 1.024 1.024 0 0 0 0-2.048zM16 12.26a4.383 4.383 0 1 0 0 8.765 4.383 4.383 0 0 0 0-8.765z" fill="url(#b)"/><path fill-rule="evenodd" clip-rule="evenodd" d="M16 13.798a2.844 2.844 0 1 1 0 5.69 2.844 2.844 0 0 1 0-5.69z" fill="url(#c)"/><path d="M19.638 7.643h-7.276A5.368 5.368 0 0 0 7 13.005v7.275a5.368 5.368 0 0 0 5.362 5.363h7.276A5.368 5.368 0 0 0 25 20.28v-7.275a5.368 5.368 0 0 0-5.362-5.362zm3.551 12.637a3.552 3.552 0 0 1-3.551 3.552h-7.276a3.552 3.552 0 0 1-3.551-3.552v-7.275a3.552 3.552 0 0 1 3.551-3.552h7.276a3.552 3.552 0 0 1 3.551 3.552v7.275z" fill="#fff"/><path d="M16 11.987a4.66 4.66 0 0 0-4.655 4.656A4.66 4.66 0 0 0 16 21.298a4.66 4.66 0 0 0 4.656-4.655A4.66 4.66 0 0 0 16 11.987zm0 7.5a2.845 2.845 0 1 1 0-5.689 2.845 2.845 0 0 1 0 5.69zM20.664 13.137a1.115 1.115 0 1 0 0-2.23 1.115 1.115 0 0 0 0 2.23z" fill="#fff"/><defs><linearGradient id="a" x1="6.8" y1="29.043" x2="28" y2="7.043" gradientUnits="userSpaceOnUse"><stop stop-color="#EEA054"/><stop offset=".503" stop-color="#D64763"/><stop offset="1" stop-color="#B62A99"/></linearGradient><linearGradient id="b" x1="6.8" y1="29.043" x2="28" y2="7.043" gradientUnits="userSpaceOnUse"><stop stop-color="#EEA054"/><stop offset=".503" stop-color="#D64763"/><stop offset="1" stop-color="#B62A99"/></linearGradient><linearGradient id="c" x1="6.8" y1="29.043" x2="28" y2="7.043" gradientUnits="userSpaceOnUse"><stop stop-color="#EEA054"/><stop offset=".503" stop-color="#D64763"/><stop offset="1" stop-color="#B62A99"/></linearGradient></defs></svg>