<svg width="18" height="18" fill="none" xmlns="http://www.w3.org/2000/svg"><path d="M12.638 0H5.362A5.368 5.368 0 0 0 0 5.362v7.276A5.368 5.368 0 0 0 5.362 18h7.276A5.368 5.368 0 0 0 18 12.638V5.362A5.368 5.368 0 0 0 12.638 0zm3.551 12.638a3.552 3.552 0 0 1-3.551 3.551H5.362a3.552 3.552 0 0 1-3.551-3.551V5.362a3.551 3.551 0 0 1 3.551-3.551h7.276a3.552 3.552 0 0 1 3.551 3.551v7.276z" fill="#fff"/><path d="M9 4.345A4.66 4.66 0 0 0 4.345 9 4.66 4.66 0 0 0 9 13.656 4.66 4.66 0 0 0 13.656 9 4.66 4.66 0 0 0 9 4.345zm0 7.5a2.845 2.845 0 1 1 0-5.69 2.845 2.845 0 0 1 0 5.69zM13.664 5.495a1.116 1.116 0 1 0 0-2.231 1.116 1.116 0 0 0 0 2.23z" fill="#fff"/></svg>