<svg width="18" height="17" fill="none" xmlns="http://www.w3.org/2000/svg"><path fill-rule="evenodd" clip-rule="evenodd" d="M4.308 5.252H.682v10.894h3.626V5.252zm.238-3.37C4.522.814 3.759 0 2.518 0 1.278 0 .467.814.467 1.882c0 1.046.787 1.883 2.004 1.883h.023c1.265 0 2.052-.837 2.052-1.883zM17.383 9.9c0-3.346-1.789-4.903-4.175-4.903-1.925 0-2.787 1.057-3.268 1.799V5.253H6.313c.048 1.022 0 10.894 0 10.894H9.94v-6.084c0-.326.023-.65.12-.884.261-.65.858-1.324 1.86-1.324 1.312 0 1.837 1 1.837 2.463v5.829h3.626V9.9z" fill="#fff"/></svg>