<svg width="32" height="33" fill="none" xmlns="http://www.w3.org/2000/svg"><path fill-rule="evenodd" clip-rule="evenodd" d="M0 16.643c0-8.837 7.163-16 16-16s16 7.163 16 16c0 8.836-7.163 16-16 16s-16-7.164-16-16z" fill="#2878B7"/><path fill-rule="evenodd" clip-rule="evenodd" d="M11.308 12.895H7.682v10.894h3.626V12.894zm.238-3.37c-.024-1.069-.787-1.882-2.028-1.882-1.24 0-2.051.813-2.051 1.881 0 1.046.787 1.884 2.004 1.884h.023c1.265 0 2.052-.838 2.052-1.884zm12.837 8.018c0-3.346-1.789-4.904-4.175-4.904-1.925 0-2.787 1.058-3.268 1.8v-1.544h-3.627c.048 1.023 0 10.895 0 10.895h3.627v-6.085c0-.325.023-.65.12-.883.261-.65.858-1.324 1.86-1.324 1.312 0 1.837.999 1.837 2.463v5.829h3.626v-6.247z" fill="#fff"/></svg>