<svg width="32" height="33" fill="none" xmlns="http://www.w3.org/2000/svg"><path fill-rule="evenodd" clip-rule="evenodd" d="M0 16.643c0-8.837 7.163-16 16-16s16 7.163 16 16c0 8.836-7.163 16-16 16s-16-7.164-16-16z" fill="#2F89CE"/><path fill-rule="evenodd" clip-rule="evenodd" d="M10.714 14.177c-1.603.7-3.25 1.419-4.755 2.248-.787.576.258.983 1.239 1.365.156.06.31.121.455.181l.368.116c1.09.347 2.306.735 3.365.152 1.739-1 3.38-2.154 5.02-3.308.537-.378 1.074-.756 1.615-1.129l.085-.055c.46-.298 1.495-.97 1.112-.044-.905.99-1.875 1.867-2.85 2.748a61.572 61.572 0 0 0-1.962 1.825c-.56.456-1.143 1.372-.515 2.01 1.447 1.013 2.916 2.001 4.384 2.989l1.433.965c.808.645 2.07.123 2.248-.885l.238-1.392c.439-2.563.877-5.127 1.265-7.698a71 71 0 0 1 .172-1.21c.144-.979.29-1.958.334-2.941-.116-.981-1.306-.766-1.968-.545-3.404 1.295-6.773 2.686-10.13 4.102-.38.168-.765.336-1.153.506z" fill="#fff"/></svg>