<svg width="19" height="16" fill="none" xmlns="http://www.w3.org/2000/svg"><path fill-rule="evenodd" clip-rule="evenodd" d="M5.714 5.534c-1.603.7-3.25 1.42-4.755 2.249-.787.575.258.983 1.239 1.365.156.06.31.12.455.18l.368.116c1.09.348 2.306.735 3.365.152 1.739-.999 3.38-2.154 5.02-3.308A197.88 197.88 0 0 1 13.02 5.16l.085-.055c.46-.299 1.495-.97 1.112-.045-.905.99-1.875 1.867-2.85 2.749-.658.594-1.318 1.19-1.962 1.825-.56.455-1.143 1.372-.515 2.01 1.447 1.013 2.916 2 4.384 2.988l1.433.965c.808.645 2.07.123 2.248-.885l.238-1.391c.439-2.563.877-5.127 1.265-7.699.052-.403.112-.806.172-1.21.144-.978.29-1.957.334-2.94C18.85.49 17.66.705 16.997.925c-3.404 1.296-6.773 2.687-10.13 4.102-.38.169-.765.337-1.153.506z" fill="#fff"/></svg>