<svg width="32" height="32" fill="none" xmlns="http://www.w3.org/2000/svg"><path fill-rule="evenodd" clip-rule="evenodd" d="M0 16C0 7.163 7.163 0 16 0s16 7.163 16 16-7.163 16-16 16S0 24.837 0 16zm18.372-3.553h4.52v-1.295h-4.52v1.295zm4.121 1.087c-.543-.241-1.155-.362-1.834-.362-1.143 0-2.071.358-2.788 1.067-.716.712-1.074 1.735-1.074 3.068 0 1.422.395 2.45 1.19 3.08.793.631 1.709.946 2.747.946 1.258 0 2.236-.374 2.934-1.121.448-.471.7-.936.756-1.391h-2.082c-.12.226-.261.402-.42.53-.29.234-.669.352-1.131.352-.44 0-.814-.097-1.125-.29-.514-.31-.783-.852-.817-1.623h5.682c.01-.664-.013-1.175-.068-1.527a3.717 3.717 0 0 0-.623-1.591 3.139 3.139 0 0 0-1.347-1.138zm-7.196-1.759c-.537-.72-1.447-1.09-2.734-1.108H7.467V21.07h4.752a7.41 7.41 0 0 0 1.49-.14 2.924 2.924 0 0 0 1.191-.522c.3-.222.548-.495.747-.819.314-.489.47-1.042.47-1.66 0-.597-.137-1.106-.41-1.524-.276-.418-.681-.724-1.22-.918.355-.178.623-.377.806-.592.326-.386.487-.898.487-1.533 0-.617-.161-1.145-.483-1.588z" fill="#C3C3C3"/><path fill-rule="evenodd" clip-rule="evenodd" d="M9.568 12.473h2.296c.505 0 .92.054 1.247.162.378.156.566.476.566.962 0 .436-.143.74-.428.913-.287.172-.66.258-1.116.258H9.568v-2.295zm9.874 2.798c.288-.293.696-.44 1.218-.44.481 0 .884.138 1.21.415.324.278.506.682.543 1.216h-3.515c.075-.5.256-.898.544-1.19zM9.568 16.49h2.597c.452.004.804.063 1.055.176.448.203.671.574.671 1.117 0 .64-.23 1.07-.693 1.298-.254.122-.611.184-1.069.184H9.57V16.49z" fill="#C3C3C3"/></svg>