<svg width="32" height="32" fill="none" xmlns="http://www.w3.org/2000/svg"><path fill-rule="evenodd" clip-rule="evenodd" d="M0 16C0 7.163 7.163 0 16 0s16 7.163 16 16-7.163 16-16 16S0 24.837 0 16zm11.308-2.748H7.682v10.894h3.626V13.252zm.238-3.37C11.522 8.814 10.759 8 9.518 8c-1.24 0-2.051.814-2.051 1.882 0 1.046.787 1.883 2.004 1.883h.023c1.265 0 2.052-.837 2.052-1.883zM24.383 17.9c0-3.347-1.788-4.904-4.174-4.904-1.926 0-2.788 1.057-3.269 1.799v-1.543h-3.626c.048 1.022 0 10.894 0 10.894h3.626v-6.084c0-.326.024-.65.12-.884.262-.65.858-1.323 1.86-1.323 1.313 0 1.837.999 1.837 2.463v5.828h3.626v-6.246z" fill="#C3C3C3"/></svg>