<svg width="0" height="0" class="hidden">
  <symbol fill="none" xmlns="http://www.w3.org/2000/svg" viewBox="0 0 128 43" id="logo">
    <path d="M9.894 3c-1.224-.49-3.345-.902-5.83 3-3.186 5-.501 6.5-.501 6.5s1.718 2.72 6.33-1.893c-2.446 2.027-7.59 7.276-8.596 12.056-1.258 5.976 1.782 4.823 3.46 3.984 1.677-.839 11.411-10.209 17.806-19.539 2.201-3.39 1.5-6.507-1.517-4.88-3.483 1.88-3.185 5.612-4.863 12.992-1.747 5.696-4.046 15.956.734 11.427 5.976-5.661 13.073-15.813 14.646-18.539 1.572-2.726 4.16-8.71-.243-6.823-4.403 1.887-6.016 23.58-5.911 24.523.105.944-.524 3.355 4.822-.838 5.832-4.574 11.373-17.862 12.516-20.362.559-1.223.329-3.218-1.684-2.38-1.817 1.818-2.026 6.492-3.703 16.137-.384 2.237-.713 6.689 1.048 6.605 2.202-.105 7.653-2.516 9.33-10.589l-1.991 9.645c1.264-1.939 3.295-4.857 5.36-7.443m5.857-5.556c-1.389.39-3.643 2.782-5.857 5.556m0 0c-1.403 2.865-3.2 8.282.825 7.024 5.032-1.573 8.806-8.911 10.274-11.427-1.852 2.76-5.536 10.986-1.678 9.645 3.858-1.342 7.968-9.016 9.54-12.685-2.97 8.806-9.12 26.753-9.96 28.095-1.047 1.678-3.249 6.29-4.612 4.613-1.363-1.678-.629-3.984 9.12-14.258 9.75-10.273 10.42-7.684 16.08-15.337C86.359 4.6 86.862.302 82.564 4.285c-4.298 3.984-5.536 30.402-11.092 32.08-5.556 1.677 5.091-8.825 7.863-11.218 2.306-1.992 10.623-6.392 14.257-11.354-2.027 1.258-5.074 3.795-1.048 3.879 4.025.084 14.677-9.05 19.499-13.628-1.223 1.013-3.082 3.166-.734 3.669 2.348.503 11.252-4.194 15.411-6.605" stroke="#EE322C" stroke-linecap="round" stroke-linejoin="round"/>
  </symbol>
  <symbol fill="none" xmlns="http://www.w3.org/2000/svg" viewBox="0 0 32 32" id="shape">
    <path fill-rule="evenodd" clip-rule="evenodd" d="M0 16C0 7.163 7.163 0 16 0s16 7.163 16 16-7.163 16-16 16S0 24.837 0 16zm18.372-3.553h4.52v-1.295h-4.52v1.295zm4.121 1.087c-.543-.241-1.155-.362-1.834-.362-1.143 0-2.071.358-2.788 1.067-.716.712-1.074 1.735-1.074 3.068 0 1.422.395 2.45 1.19 3.08.793.631 1.709.946 2.747.946 1.258 0 2.236-.374 2.934-1.121.448-.471.7-.936.756-1.391h-2.082c-.12.226-.261.402-.42.53-.29.234-.669.352-1.131.352-.44 0-.814-.097-1.125-.29-.514-.31-.783-.852-.817-1.623h5.682c.01-.664-.013-1.175-.068-1.527a3.717 3.717 0 00-.623-1.591 3.139 3.139 0 00-1.347-1.138zm-7.196-1.759c-.537-.72-1.447-1.09-2.734-1.108H7.467V21.07h4.752a7.41 7.41 0 001.49-.14 2.924 2.924 0 001.191-.522c.3-.222.548-.495.747-.819.314-.489.47-1.042.47-1.66 0-.597-.137-1.106-.41-1.524-.276-.418-.681-.724-1.22-.918.355-.178.623-.377.806-.592.326-.386.487-.898.487-1.533 0-.617-.161-1.145-.483-1.588z" fill="#C3C3C3"/>
    <path fill-rule="evenodd" clip-rule="evenodd" d="M9.568 12.473h2.296c.505 0 .92.054 1.247.162.378.156.566.476.566.962 0 .436-.143.74-.428.913-.287.172-.66.258-1.116.258H9.568v-2.295zm9.874 2.798c.288-.293.696-.44 1.218-.44.481 0 .884.138 1.21.415.324.278.506.682.543 1.216h-3.515c.075-.5.256-.898.544-1.19zM9.568 16.49h2.597c.452.004.804.063 1.055.176.448.203.671.574.671 1.117 0 .64-.23 1.07-.693 1.298-.254.122-.611.184-1.069.184H9.57V16.49z" fill="#C3C3C3"/>
  </symbol>
  <symbol fill="none" xmlns="http://www.w3.org/2000/svg" viewBox="0 0 32 32" id="telegram">
    <path fill-rule="evenodd" clip-rule="evenodd" d="M32 16c0 8.837-7.163 16-16 16S0 24.837 0 16 7.163 0 16 0s16 7.163 16 16zm-21.286-1.466c-1.602.7-3.25 1.42-4.755 2.249-.786.575.259.983 1.24 1.365.155.06.31.12.454.18l.368.116c1.09.348 2.306.735 3.365.152 1.739-.999 3.38-2.154 5.02-3.308.537-.378 1.074-.756 1.615-1.128l.085-.055c.46-.299 1.496-.97 1.113-.045-.906.99-1.876 1.867-2.851 2.749a61.465 61.465 0 00-1.961 1.825c-.561.455-1.144 1.372-.516 2.01 1.447 1.013 2.916 2 4.385 2.989l1.432.964c.808.645 2.071.123 2.249-.885l.237-1.391c.439-2.563.877-5.127 1.265-7.699.052-.403.112-.806.172-1.21.145-.978.29-1.957.335-2.94-.117-.982-1.307-.766-1.969-.545-3.404 1.295-6.773 2.686-10.13 4.101-.38.169-.765.337-1.153.506z" fill="#C3C3C3"/>
  </symbol>
  <symbol fill="none" xmlns="http://www.w3.org/2000/svg" viewBox="0 0 32 29" id="telegram-2">
    <path d="M.561 13.93l7.357 2.752 2.868 9.256c.125.625.873.75 1.372.375l4.115-3.377c.374-.376.997-.376 1.496 0l7.357 5.378c.499.375 1.247.125 1.371-.5l5.487-26.267c.125-.625-.499-1.25-1.122-1L.562 12.304c-.749.25-.749 1.376 0 1.626zm9.851 1.376l14.464-8.88c.25-.126.5.25.25.375L13.28 17.933c-.374.375-.748.875-.748 1.5l-.374 3.002c0 .376-.624.5-.748 0l-1.497-5.503c-.374-.625-.125-1.376.499-1.626z" fill="#8B8B8B"/>
  </symbol>
  <symbol fill="none" xmlns="http://www.w3.org/2000/svg" viewBox="0 0 32 32" id="instagram">
    <path fill-rule="evenodd" clip-rule="evenodd" d="M0 16C0 7.163 7.163 0 16 0s16 7.163 16 16-7.163 16-16 16S0 24.837 0 16zm16-8.533c-2.317 0-2.608.01-3.518.051-.908.042-1.528.186-2.07.397a4.178 4.178 0 00-1.513.984c-.474.474-.766.95-.985 1.511-.211.543-.355 1.163-.396 2.071-.04.91-.051 1.202-.051 3.52 0 2.317.01 2.607.051 3.517.042.908.186 1.528.397 2.07a4.19 4.19 0 00.984 1.513c.474.474.95.767 1.511.985.543.21 1.163.354 2.072.396.91.041 1.2.052 3.518.052 2.317 0 2.607-.01 3.518-.052.908-.042 1.529-.185 2.072-.396a4.175 4.175 0 001.51-.985c.475-.475.767-.95.985-1.512.21-.543.354-1.163.397-2.071.04-.91.051-1.2.051-3.518 0-2.317-.01-2.608-.051-3.518-.043-.909-.187-1.53-.397-2.072A4.187 4.187 0 0023.1 8.9a4.17 4.17 0 00-1.51-.984c-.545-.211-1.165-.355-2.074-.397-.91-.041-1.2-.051-3.518-.051h.003z" fill="#C3C3C3"/>
    <path fill-rule="evenodd" clip-rule="evenodd" d="M15.235 9.004h.766c2.278 0 2.548.009 3.448.05.832.038 1.284.177 1.584.293.399.155.682.34.981.639.299.298.484.583.639.981.116.3.256.752.294 1.584.04.9.05 1.17.05 3.447 0 2.278-.01 2.548-.05 3.447-.039.832-.178 1.284-.294 1.584-.155.398-.34.682-.639.98a2.64 2.64 0 01-.98.639c-.301.117-.753.256-1.585.294-.9.04-1.17.05-3.448.05-2.279 0-2.549-.01-3.448-.05-.832-.038-1.284-.178-1.585-.294a2.642 2.642 0 01-.981-.639 2.645 2.645 0 01-.639-.98c-.117-.3-.256-.752-.294-1.584-.04-.9-.049-1.17-.049-3.449s.008-2.548.05-3.447c.037-.832.176-1.284.293-1.585.155-.398.34-.682.639-.98.298-.3.583-.484.981-.64.3-.117.753-.255 1.585-.294.787-.035 1.092-.046 2.682-.048v.002zm5.32 1.417a1.024 1.024 0 100 2.048 1.024 1.024 0 000-2.048zm-4.554 1.197a4.383 4.383 0 100 8.765 4.383 4.383 0 000-8.765z" fill="#C3C3C3"/>
    <path fill-rule="evenodd" clip-rule="evenodd" d="M16 13.156a2.845 2.845 0 110 5.689 2.845 2.845 0 010-5.69z" fill="#C3C3C3"/>
  </symbol>
  <symbol fill="none" xmlns="http://www.w3.org/2000/svg" viewBox="0 0 32 32" id="linkedin">
    <path fill-rule="evenodd" clip-rule="evenodd" d="M0 16C0 7.163 7.163 0 16 0s16 7.163 16 16-7.163 16-16 16S0 24.837 0 16zm11.308-2.748H7.682v10.894h3.626V13.252zm.238-3.37C11.522 8.814 10.759 8 9.518 8c-1.24 0-2.051.814-2.051 1.882 0 1.046.787 1.883 2.004 1.883h.023c1.265 0 2.052-.837 2.052-1.883zM24.383 17.9c0-3.347-1.788-4.904-4.174-4.904-1.926 0-2.788 1.057-3.269 1.799v-1.543h-3.626c.048 1.022 0 10.894 0 10.894h3.626v-6.084c0-.326.024-.65.12-.884.262-.65.858-1.323 1.86-1.323 1.313 0 1.837.999 1.837 2.463v5.828h3.626V17.9z" fill="#C3C3C3"/>
  </symbol>
</svg>