<svg width="32" height="32" fill="none" xmlns="http://www.w3.org/2000/svg"><path fill-rule="evenodd" clip-rule="evenodd" d="M0 16C0 7.163 7.163 0 16 0s16 7.163 16 16-7.163 16-16 16S0 24.837 0 16z" fill="url(#a)"/><path fill-rule="evenodd" clip-rule="evenodd" d="M20.556 10.421a1.024 1.024 0 1 0 0 2.048 1.024 1.024 0 0 0 0-2.048zM16 11.618a4.383 4.383 0 1 0 0 8.765 4.383 4.383 0 0 0 0-8.765z" fill="url(#b)"/><path fill-rule="evenodd" clip-rule="evenodd" d="M16 13.156a2.845 2.845 0 1 1 0 5.689 2.845 2.845 0 0 1 0-5.69z" fill="url(#c)"/><path d="M19.638 7h-7.276A5.368 5.368 0 0 0 7 12.362v7.276A5.368 5.368 0 0 0 12.362 25h7.276A5.368 5.368 0 0 0 25 19.638v-7.276A5.368 5.368 0 0 0 19.638 7zm3.551 12.638a3.552 3.552 0 0 1-3.551 3.551h-7.276a3.552 3.552 0 0 1-3.551-3.551v-7.276a3.551 3.551 0 0 1 3.551-3.551h7.276a3.551 3.551 0 0 1 3.551 3.551v7.276z" fill="#fff"/><path d="M16 11.345A4.66 4.66 0 0 0 11.345 16 4.66 4.66 0 0 0 16 20.656 4.66 4.66 0 0 0 20.656 16 4.66 4.66 0 0 0 16 11.345zm0 7.5a2.845 2.845 0 1 1 0-5.69 2.845 2.845 0 0 1 0 5.69zM20.664 12.495a1.116 1.116 0 1 0 0-2.231 1.116 1.116 0 0 0 0 2.23z" fill="#fff"/><defs><linearGradient id="a" x1="6.8" y1="28.4" x2="28" y2="6.4" gradientUnits="userSpaceOnUse"><stop stop-color="#EEA054"/><stop offset=".503" stop-color="#D64763"/><stop offset="1" stop-color="#B62A99"/></linearGradient><linearGradient id="b" x1="6.8" y1="28.4" x2="28" y2="6.4" gradientUnits="userSpaceOnUse"><stop stop-color="#EEA054"/><stop offset=".503" stop-color="#D64763"/><stop offset="1" stop-color="#B62A99"/></linearGradient><linearGradient id="c" x1="6.8" y1="28.4" x2="28" y2="6.4" gradientUnits="userSpaceOnUse"><stop stop-color="#EEA054"/><stop offset=".503" stop-color="#D64763"/><stop offset="1" stop-color="#B62A99"/></linearGradient></defs></svg>