<svg width="32" height="32" fill="none" xmlns="http://www.w3.org/2000/svg"><path fill-rule="evenodd" clip-rule="evenodd" d="M0 16C0 7.163 7.163 0 16 0s16 7.163 16 16-7.163 16-16 16S0 24.837 0 16z" fill="#fff"/><path fill-rule="evenodd" clip-rule="evenodd" d="M20.556 10.421a1.024 1.024 0 1 0 0 2.048 1.024 1.024 0 0 0 0-2.048zM16 11.618a4.383 4.383 0 1 0 0 8.765 4.383 4.383 0 0 0 0-8.765z" fill="#fff"/><path fill-rule="evenodd" clip-rule="evenodd" d="M16 13.156a2.845 2.845 0 1 1 0 5.689 2.845 2.845 0 0 1 0-5.69z" fill="#fff"/><path d="M12.362 7.5h7.276a4.868 4.868 0 0 1 4.862 4.862v7.276a4.868 4.868 0 0 1-4.862 4.862h-7.276A4.868 4.868 0 0 1 7.5 19.638v-7.276A4.868 4.868 0 0 1 12.362 7.5zm7.276 16.19a4.051 4.051 0 0 0 4.051-4.052v-7.276a4.051 4.051 0 0 0-4.051-4.051h-7.276a4.051 4.051 0 0 0-4.051 4.051v7.276a4.051 4.051 0 0 0 4.051 4.051h7.276z" fill="url(#a)" stroke="url(#b)"/><path d="M11.845 16A4.16 4.16 0 0 1 16 11.845 4.16 4.16 0 0 1 20.156 16 4.16 4.16 0 0 1 16 20.156 4.16 4.16 0 0 1 11.845 16zm.81 0a3.345 3.345 0 1 0 6.69 0 3.345 3.345 0 0 0-6.69 0z" fill="url(#c)" stroke="url(#d)"/><path d="M21.28 11.38a.616.616 0 1 1-1.231 0 .616.616 0 0 1 1.23 0z" fill="url(#e)" stroke="url(#f)"/><defs><linearGradient id="a" x1="7" y1="25" x2="25.854" y2="24.056" gradientUnits="userSpaceOnUse"><stop stop-color="#EEA054"/><stop offset=".51" stop-color="#D64763"/><stop offset="1" stop-color="#B62A99"/></linearGradient><linearGradient id="b" x1="7.409" y1="26.828" x2="26.06" y2="25.775" gradientUnits="userSpaceOnUse"><stop stop-color="#EEA054"/><stop offset=".484" stop-color="#D64763"/><stop offset="1" stop-color="#B62A99"/></linearGradient><linearGradient id="c" x1="11.345" y1="20.656" x2="21.097" y2="20.167" gradientUnits="userSpaceOnUse"><stop stop-color="#EEA054"/><stop offset=".51" stop-color="#D64763"/><stop offset="1" stop-color="#B62A99"/></linearGradient><linearGradient id="d" x1="11.556" y1="21.601" x2="21.204" y2="21.057" gradientUnits="userSpaceOnUse"><stop stop-color="#EEA054"/><stop offset=".484" stop-color="#D64763"/><stop offset="1" stop-color="#B62A99"/></linearGradient><linearGradient id="e" x1="19.549" y1="12.495" x2="21.886" y2="12.378" gradientUnits="userSpaceOnUse"><stop stop-color="#EEA054"/><stop offset=".51" stop-color="#D64763"/><stop offset="1" stop-color="#B62A99"/></linearGradient><linearGradient id="f" x1="19.599" y1="12.721" x2="21.911" y2="12.591" gradientUnits="userSpaceOnUse"><stop stop-color="#EEA054"/><stop offset=".484" stop-color="#D64763"/><stop offset="1" stop-color="#B62A99"/></linearGradient></defs></svg>