<svg width="180" height="27" fill="none" xmlns="http://www.w3.org/2000/svg"><g style="mix-blend-mode:luminosity"><path d="M.5 21.577v4.951h5.141c.857 0 1.62-.38 2.19-.952.572-.571.953-1.238.953-2.19V14.15H3.642c-.857 0-1.619.381-2.19.953-.571.57-.952 1.237-.952 2.19v4.284zM.5 5.295V.344h5.141c.857 0 1.62.38 2.19.952.572.571.953 1.238.953 2.19v9.235H3.642c-.857 0-1.619-.38-2.19-.952C.881 11.198.5 10.531.5 9.58V5.295zM16.02 20.148v3.618h-3.713a2.23 2.23 0 0 1-1.619-.667c-.476-.476-.666-.952-.666-1.618v-6.76h3.713c.571 0 1.143.19 1.619.666.476.476.666.952.666 1.619v3.142z" fill="#DCDCDC"/><path d="M20.114 4.058h4.856v12.758h.19L31.16 4.058h6.76v19.328h-4.856V10.627h-.095L27.16 23.386h-7.046V4.058zm37.8 0v19.328h-5.142v-7.522h-6.76v7.522h-5.141V4.058h5.141v7.33h6.76v-7.33h5.142zM74.766 23.29h-5.141v-1.81h-2.666c-1.238 0-2.475-.095-3.332-.38-.953-.19-1.62-.667-2.19-1.238-.572-.571-.953-1.428-1.143-2.476-.19-1.047-.38-2.19-.38-3.713 0-2 .19-3.523.666-4.665.476-1.143 1.142-2 2.19-2.476 1.047-.476 2.475-.666 4.189-.666h2.666v-1.81h5.141v1.81h2.571c1.714 0 3.142.19 4.19.666 1.047.476 1.713 1.238 2.19 2.476.475 1.237.666 2.666.666 4.665 0 1.524-.095 2.761-.38 3.809-.191.952-.667 1.713-1.143 2.475-.572.571-1.238 1.047-2.19 1.238-.953.19-2 .38-3.333.38h-2.57v1.715zm-6.95-6.285h1.714v-6.76h-1.714c-.667 0-1.143.096-1.619.381-.38.19-.666.571-.857 1.048-.095.476-.19 1.142-.19 1.999 0 .952.095 1.524.19 2.095.096.476.477.857.857 1.047.476.095.952.19 1.619.19zm6.95 0h1.714c.667 0 1.143-.095 1.524-.19.38-.19.666-.571.857-1.047.19-.476.19-1.143.19-2.095 0-1.238-.19-2.095-.571-2.666-.381-.476-1.048-.666-2.095-.666h-1.714l.095 6.664zm19.9 6.57a40.01 40.01 0 0 1-3.713-.19c-1.048-.19-2-.572-2.761-1.048-.857-.476-1.429-1.142-1.81-2.19-.476-.952-.666-2.094-.666-3.618v-5.427c0-1.428.19-2.666.666-3.618.477-.952 1.048-1.618 1.81-2.19.761-.571 1.713-.857 2.76-1.142 1.048-.19 2.286-.381 3.714-.381s2.666.095 3.713.19c1.048.19 2 .572 2.761 1.048.857.476 1.429 1.237 1.809 2.19.477.952.667 2.094.667 3.618v5.427c0 1.428-.19 2.666-.667 3.618-.476.952-1.047 1.619-1.809 2.19-.856.571-1.713.952-2.76 1.047-1.048.286-2.381.476-3.714.476zm0-4.57c.952 0 1.714-.095 2.19-.19.476-.096.857-.476 1.047-.953.19-.476.381-1.142.381-2.094v-4.38c0-.666-.095-1.238-.19-1.714-.096-.38-.381-.666-.572-.952-.19-.19-.57-.38-1.047-.476-.476 0-1.047-.095-1.714-.095-.952 0-1.714.095-2.19.19s-.857.476-1.047.952c-.19.476-.38 1.143-.38 2.095v4.38c0 .952.094 1.618.38 2.094.19.477.571.667 1.047.857.286.19 1.048.286 2.095.286z" fill="#57A216"/><path d="M103.996 4.057h5.808l3.333 8.378h.19l3.332-8.378h5.904l-7.332 14.948c-.571 1.143-1.142 2-1.714 2.666-.571.667-1.142 1.143-1.809 1.428-.666.286-1.618.476-2.57.476-.667 0-1.619-.095-2.571-.19v-4.19c.381.096.952.191 1.714.191.571 0 1.047 0 1.238-.095.19 0 .476-.095.571-.381.095-.095.19-.476.381-.857l-6.475-13.996zm25.232 19.233h-5.142V3.962h9.712c1.142 0 2.19.095 3.142.38.857.19 1.523.667 1.999 1.238.476.571.952 1.238 1.143 2.19.19.952.381 2 .381 3.237 0 1.428-.095 2.571-.191 3.523a4.71 4.71 0 0 1-1.047 2.19c-.476.571-1.143.952-2 1.143-.856.19-1.999.38-3.332.38h-4.475l-.19 5.047zm0-9.426h3.522a5.97 5.97 0 0 0 1.524-.19c.381-.096.571-.382.666-.858.096-.38.096-1.047.096-1.809 0-.666 0-1.142-.096-1.618-.095-.381-.38-.572-.666-.857a5.97 5.97 0 0 0-1.524-.19h-3.522v5.522zm20.946 9.711a40 40 0 0 1-3.713-.19 7.952 7.952 0 0 1-2.761-1.047c-.857-.476-1.428-1.238-1.809-2.19s-.667-2.095-.667-3.618v-5.428c0-1.428.191-2.665.667-3.618.476-.952 1.047-1.618 1.809-2.19.857-.476 1.714-.856 2.761-1.047 1.047-.19 2.285-.19 3.713-.19 1.429 0 2.666.095 3.714.19a7.95 7.95 0 0 1 2.761 1.048c.857.476 1.428 1.237 1.809 2.19.476.952.666 2.094.666 3.617v5.428c0 1.428-.19 2.666-.666 3.618-.476.952-1.047 1.618-1.809 2.19-.857.476-1.714.857-2.761 1.047-1.048 0-2.285.19-3.714.19zm0-4.57c.953 0 1.714-.095 2.19-.19.476-.096.857-.476 1.048-.952.19-.476.381-1.143.381-2.095v-4.285c0-.666-.096-1.237-.191-1.713-.095-.381-.381-.667-.571-.953-.191-.285-.667-.38-1.048-.38-.38 0-1.047-.096-1.713-.096-.952 0-1.714.096-2.19.19-.476.096-.857.477-1.048.858-.19.476-.38 1.142-.38 2.094v4.38c0 .952.095 1.619.38 2.095.191.476.572.666 1.048.952.381 0 1.047.095 2.094.095zM166.17 4.057v7.331h1.524l4.951-7.331h6.284l-6.856 9.521 7.427 9.807h-6.379l-5.427-7.522h-1.524v7.522h-5.141V4.057h5.141z" fill="#DCDCDC"/></g></svg>