<svg width="180" height="44" fill="none" xmlns="http://www.w3.org/2000/svg"><g style="mix-blend-mode:luminosity" clip-path="url(#a)" fill-rule="evenodd" clip-rule="evenodd" fill="#fff"><path d="m22.82 15.245 2.808 1.64v8.545a4.06 4.06 0 0 0 1.705 3.241c.94.532 1.705-.064 1.705-1.296v-8.428l3.63 2.1c2.38 1.407 4.325 5.187 4.325 8.467v10.049c0 3.241-1.945 4.758-4.325 3.358l-9.847-5.835c-2.38-1.374-4.324-5.186-4.324-8.434V18.603c0-3.254 1.945-4.765 4.324-3.358zM54.645 15.245l-9.847 5.803c-2.38 1.406-4.324 5.186-4.324 8.466v10.049c0 3.241 1.945 4.758 4.324 3.358l9.847-5.835c2.38-1.407 4.325-5.186 4.325-8.466V18.602c0-3.254-1.945-4.765-4.325-3.358zM52.856 7.083 49.738 5.23 31.15 16.088l3.3 1.945c2.373 1.407 6.56 1.225 9.297-.402l8.46-5.011c2.73-1.628 3.027-4.117.648-5.524v-.013zm-6.483-3.87L27.748 14.072l-3.138-1.86c-2.373-1.408-2.08-3.89.648-5.524l8.428-5.037c2.775-1.628 6.956-1.81 9.336-.402l3.351 1.964zM152.628 21.696l-3.695 5.445h-5.141l6.321-8.46-5.925-8.052h4.978l3.462 5.044 3.462-5.044h4.979l-5.893 8.046 6.314 8.466h-5.134l-3.728-5.445zM129.66 9.76a.507.507 0 0 0-.15.253 2.455 2.455 0 0 0-.038.428v3.728h12.246v3.968h-12.246v4.408a.645.645 0 0 0 .129.46c.078.056.17.09.266.097.252.03.505.043.758.04H142.1v4h-13.821a10.07 10.07 0 0 1-1.297-.078 2.286 2.286 0 0 1-1.335-.694 2.477 2.477 0 0 1-.83-1.433 7.621 7.621 0 0 1-.123-1.297V9.002a4.238 4.238 0 0 1 .214-1.335c.128-.402.33-.776.596-1.102a2.449 2.449 0 0 1 1.446-.817c.447-.08.9-.121 1.355-.123h13.685v3.967h-11.559a3 3 0 0 0-.48.039.547.547 0 0 0-.291.13zM110.554 23.025c.065.037.132.07.201.097.165.043.336.06.506.052h11.766v3.967h-14.262c-.38 0-.758-.044-1.128-.13a2.468 2.468 0 0 1-1.076-.511 3.246 3.246 0 0 1-.545-.72 2.518 2.518 0 0 1-.311-1.297V5.612h4.758v17.257a.236.236 0 0 0 .091.156zM104.071 23.906c-.009.388-.05.774-.123 1.154a2.344 2.344 0 0 1-.862 1.4 2.789 2.789 0 0 1-1.381.597c-.445.06-.893.09-1.342.09h-5.517a9.523 9.523 0 0 1-2.444-.265 4.726 4.726 0 0 1-1.945-1.024 4.428 4.428 0 0 1-1.4-2.218 10.33 10.33 0 0 1-.325-2.71v-10.3h4.318v9.672c-.011.528.03 1.055.123 1.575.064.326.194.635.383.908.218.32.545.55.92.648.502.116 1.016.17 1.53.162h2.879c.247.02.493-.049.693-.194a.5.5 0 0 0 .143-.22c.01-.141.01-.282 0-.422v-12.13h4.35v13.277zM74.522 14.26h9.147v3.967h-9.147v8.914h-4.759V8.762c.003-.383.057-.765.163-1.134.138-.444.393-.843.739-1.154a2.755 2.755 0 0 1 1.296-.726 6.165 6.165 0 0 1 1.193-.13h13.893v3.968H74.73a.48.48 0 0 0-.085.077.266.266 0 0 0-.084.15 2.35 2.35 0 0 0 0 .37l-.039 4.077zM70.944 37.994V33.56h1.465v-.908h-1.466a.985.985 0 0 1 .091-.5.804.804 0 0 1 .214-.259.979.979 0 0 1 .434-.136h.727v-.894h-.513a4.35 4.35 0 0 0-.57.058c-.188.03-.372.078-.551.143-.163.06-.315.142-.454.246a1.3 1.3 0 0 0-.279.318 2.042 2.042 0 0 0-.168.363c-.04.118-.068.24-.084.363a1.867 1.867 0 0 0 0 .304h-.772v.901h.746V38h1.18v-.006zm7.72-.953v-4.39h-1.173v4.007a1.37 1.37 0 0 1 0 .162.298.298 0 0 1-.09.163.474.474 0 0 1-.344.11h-1.005a2.334 2.334 0 0 1-.558-.059.681.681 0 0 1-.395-.285 1.06 1.06 0 0 1-.156-.37 2.735 2.735 0 0 1-.045-.57v-3.157h-1.18v3.371c-.005.3.03.598.104.888.07.267.22.507.428.687.188.153.41.257.648.305.259.062.525.09.791.084h1.887c.146.01.294.01.44 0a.778.778 0 0 0 .396-.168.649.649 0 0 0 .24-.39c.024-.121.039-.245.045-.369l-.032-.02zm1.634.953h1.18v-7.067h-1.18v7.067zm4.415 0V33.56h1.465v-.908h-1.465a.986.986 0 0 1 .09-.5.805.805 0 0 1 .215-.259.979.979 0 0 1 .434-.136h.726v-.894h-.512a4.35 4.35 0 0 0-.57.058c-.188.03-.373.078-.551.143-.163.06-.316.142-.454.246a1.3 1.3 0 0 0-.279.318 2.042 2.042 0 0 0-.168.363c-.04.118-.068.24-.085.363a1.867 1.867 0 0 0 0 .304h-.771v.901h.745V38h1.18v-.006zm1.945 0h1.206v-5.349h-1.18v5.349h-.026zm1.206-6.12v-.94h-1.18v.94h1.18zm1.634 6.12h1.18v-7.067h-1.18v7.067zm2.813 0h1.18v-4.078a1.307 1.307 0 0 1 0-.207.23.23 0 0 1 0-.078l.078-.052a.423.423 0 0 1 .188 0h1.724v4.44h1.18v-4.46h1.102c.122.002.244.015.363.04a.59.59 0 0 1 .35.213.758.758 0 0 1 .182.376c.024.126.037.254.039.383V38h1.18v-3.612a2.139 2.139 0 0 0-.123-.745 1.477 1.477 0 0 0-.357-.564 1.419 1.419 0 0 0-.648-.344 3.526 3.526 0 0 0-.649-.078h-4.855a1.811 1.811 0 0 0-.422.059.649.649 0 0 0-.389.266.707.707 0 0 0-.123.317c-.008.095-.008.19 0 .285v4.409zm14.1 0v-.908h-2.923a1.095 1.095 0 0 1-.318-.084.701.701 0 0 1-.259-.195.858.858 0 0 1-.169-.337 2.342 2.342 0 0 1-.052-.343v-.396h3.106c.102 0 .205-.012.304-.039a.548.548 0 0 0 .266-.162.729.729 0 0 0 .214-.389c.026-.139.039-.28.039-.421a4.383 4.383 0 0 0-.032-.5 1.977 1.977 0 0 0-.117-.472 1.792 1.792 0 0 0-.234-.422 1.597 1.597 0 0 0-.376-.343 1.944 1.944 0 0 0-.829-.286 7.389 7.389 0 0 0-.934-.058h-.447a3.804 3.804 0 0 0-.525.058 2.64 2.64 0 0 0-.538.15c-.18.065-.345.164-.487.291-.139.12-.258.262-.35.422a2.089 2.089 0 0 0-.194.512c-.047.197-.073.4-.078.603v.7c0 .35.019.701.058 1.05.033.322.144.632.324.901.098.145.221.27.364.37.251.172.544.273.849.291h.421l2.917.007zm-3.766-3.183v-.493a.78.78 0 0 1 .207-.428c.149-.163.347-.273.564-.311.097-.009.195-.009.292 0h.259c.173-.01.346-.01.519 0 .18.023.35.095.493.207a.988.988 0 0 1 .24.286.844.844 0 0 1 .103.434.493.493 0 0 1-.045.214.22.22 0 0 1-.214.104h-2.451l.033-.013zm5.426 3.183h1.186v-4.156a.676.676 0 0 1 0-.11.17.17 0 0 1 .059-.11.188.188 0 0 1 .104-.059h1.296c.176-.006.352.02.519.078a.82.82 0 0 1 .33.247c.097.129.16.28.182.44.026.17.039.341.039.513v3.17h1.18V34.48c.013-.3-.04-.598-.156-.875a1.58 1.58 0 0 0-.369-.512 1.416 1.416 0 0 0-.694-.363 4.386 4.386 0 0 0-.797-.072h-1.887a3.267 3.267 0 0 0-.408 0 .648.648 0 0 0-.558.506c-.008.095-.008.19 0 .285v4.538l-.026.007zm9.569 0v-.908h-.292c-.11 0-.253 0-.441-.032a.839.839 0 0 1-.479-.201.6.6 0 0 1-.195-.247 1.244 1.244 0 0 1-.091-.298 1.723 1.723 0 0 1 0-.304V33.56h1.491v-.908h-1.491v-1.718h-1.18v1.718h-.739v.907h.739v2.697c-.01.283.037.565.137.83.087.205.223.385.395.525.169.136.363.238.571.299.281.073.571.106.862.097h.739l-.026-.013zm8.428 0v-.908h-2.924a1.095 1.095 0 0 1-.318-.084.701.701 0 0 1-.259-.195.872.872 0 0 1-.169-.337 2.342 2.342 0 0 1-.052-.343v-.396h3.099c.103 0 .206-.012.305-.039a.552.552 0 0 0 .266-.162.736.736 0 0 0 .214-.389 2.48 2.48 0 0 0 .039-.421 4.166 4.166 0 0 0-.033-.5 1.792 1.792 0 0 0-.35-.895 1.597 1.597 0 0 0-.376-.342 1.943 1.943 0 0 0-.83-.286 7.362 7.362 0 0 0-.933-.058h-.441a3.804 3.804 0 0 0-.525.058 2.64 2.64 0 0 0-.538.15 1.43 1.43 0 0 0-.486.291c-.14.12-.259.262-.351.422a2.13 2.13 0 0 0-.194.512c-.047.197-.073.4-.078.603v.7c0 .35.019.701.059 1.05.032.322.143.632.324.901.097.145.22.27.363.37.251.172.545.273.849.291h.421l2.918.007zm-3.767-3.183v-.493a.774.774 0 0 1 .208-.428.995.995 0 0 1 .564-.311c.097-.009.194-.009.291 0h.26c.172-.01.345-.01.518 0 .18.025.35.096.493.207a.988.988 0 0 1 .24.286.844.844 0 0 1 .104.434.51.51 0 0 1-.046.214.22.22 0 0 1-.214.104h-2.45l.032-.013zm10.243 3.183-2.049-2.742 1.906-2.594h-1.296l-1.297 1.835-1.264-1.835h-1.329l1.945 2.593-2.049 2.743h1.381l1.342-1.945 1.355 1.945h1.355zm2.165 0h1.939c.164-.014.327-.044.486-.091.175-.054.341-.132.493-.233.167-.116.312-.26.428-.428.096-.138.172-.289.226-.447a2.6 2.6 0 0 0 .13-.506c.033-.178.053-.358.058-.538v-1.012a2.918 2.918 0 0 0-.064-.518 2.975 2.975 0 0 0-.169-.512 1.682 1.682 0 0 0-.318-.467 1.56 1.56 0 0 0-.414-.318 2.09 2.09 0 0 0-.441-.175 2.606 2.606 0 0 0-.402-.078 2.959 2.959 0 0 0-.318 0h-1.867a2.055 2.055 0 0 0-.331 0 .719.719 0 0 0-.33.143.95.95 0 0 0-.201.24.797.797 0 0 0-.104.421v6.243h1.18v-1.724h.019zm0-.908v-3.28a.258.258 0 0 1 .078-.182l.078-.045a.156.156 0 0 1 .084 0h1.161c.227-.006.452.053.648.169.165.105.296.256.376.434.044.115.077.235.097.356.033.256.043.514.033.772.008.293-.016.587-.072.875a1.344 1.344 0 0 1-.149.402c-.089.13-.201.241-.33.33a1.163 1.163 0 0 1-.649.17h-1.355zm5.29.908h1.18v-3.015c.001-.193.018-.386.052-.577.032-.174.108-.337.221-.473a.867.867 0 0 1 .492-.311 2.6 2.6 0 0 1 .512-.059h.493v-.907h-1.147a2.547 2.547 0 0 0-.422.058c-.149.033-.294.08-.434.143a1.449 1.449 0 0 0-.396.26 1.367 1.367 0 0 0-.447.7c-.071.279-.106.567-.104.855v3.326zm9.031 0v-.908h-2.924a1.097 1.097 0 0 1-.317-.084.697.697 0 0 1-.26-.195.856.856 0 0 1-.168-.337 2.342 2.342 0 0 1-.052-.343v-.396h3.105c.103 0 .206-.012.305-.039a.552.552 0 0 0 .266-.162.736.736 0 0 0 .214-.389 2.48 2.48 0 0 0 .039-.421 4.166 4.166 0 0 0-.033-.5 1.93 1.93 0 0 0-.117-.472 1.753 1.753 0 0 0-.233-.422 1.597 1.597 0 0 0-.376-.343 1.943 1.943 0 0 0-.83-.286 7.362 7.362 0 0 0-.933-.058h-.441a3.804 3.804 0 0 0-.525.058 2.64 2.64 0 0 0-.538.15 1.503 1.503 0 0 0-.487.291c-.139.12-.258.262-.35.422a2.089 2.089 0 0 0-.194.512c-.047.197-.073.4-.078.603v.7c0 .35.019.701.058 1.05.033.322.144.632.325.901.097.145.22.27.363.37.251.172.545.273.849.291h.421l2.911.007zm-3.766-3.183c0-.175 0-.337.032-.493a.78.78 0 0 1 .207-.428c.149-.163.347-.273.564-.311.097-.009.195-.009.292 0h.259c.173-.01.346-.01.519 0 .18.023.35.095.493.207a.988.988 0 0 1 .24.286.834.834 0 0 1 .103.434.493.493 0 0 1-.045.214.22.22 0 0 1-.214.104h-2.45v-.013zm5.361 3.183h3.423c.142.009.285.009.428 0a.965.965 0 0 0 .428-.188.831.831 0 0 0 .252-.273 1.432 1.432 0 0 0 .195-.616v-.246a2.273 2.273 0 0 0-.058-.486 1.039 1.039 0 0 0-.279-.493 1.441 1.441 0 0 0-.525-.337 8.452 8.452 0 0 0-.811-.265l-1.147-.325-.143-.039-.188-.064-.188-.078a.672.672 0 0 1-.149-.091.448.448 0 0 1-.149-.2.767.767 0 0 1 0-.215 1.027 1.027 0 0 1 0-.207.3.3 0 0 1 .13-.175.397.397 0 0 1 .207-.091H155.092v-.953H151.695a1.525 1.525 0 0 0-.299.065c-.112.032-.219.08-.317.142a.943.943 0 0 0-.273.26 1.15 1.15 0 0 0-.207.466 2.241 2.241 0 0 0 0 .889c.033.169.104.328.207.466.121.159.276.288.454.376.228.118.47.207.72.266l1.031.285.453.13.279.09.156.066a.255.255 0 0 1 .078.058c.061.05.104.118.123.195.01.07.01.142 0 .213v.156a.29.29 0 0 1-.091.175.319.319 0 0 1-.194.123.777.777 0 0 1-.201 0h-3.009v.888l.02.033zm6.152 0h3.423c.143.009.286.009.428 0a.965.965 0 0 0 .428-.188.834.834 0 0 0 .253-.273c.056-.098.102-.202.136-.31.031-.1.05-.202.058-.305v-.247a2.211 2.211 0 0 0-.058-.486 1.03 1.03 0 0 0-.279-.493 1.433 1.433 0 0 0-.525-.337 8.516 8.516 0 0 0-.81-.265l-1.148-.325-.142-.039-.188-.064-.188-.078a.656.656 0 0 1-.15-.091.456.456 0 0 1-.149-.2.767.767 0 0 1 0-.215 1.197 1.197 0 0 1 0-.207.3.3 0 0 1 .13-.175.397.397 0 0 1 .207-.091H161.244v-.953h-3.365a1.522 1.522 0 0 0-.343.058c-.112.033-.219.08-.318.143a.938.938 0 0 0-.272.26 1.165 1.165 0 0 0-.208.466 2.241 2.241 0 0 0 0 .888c.034.17.105.329.208.467.12.158.275.287.454.376.228.117.469.207.719.266l1.031.285.454.13.279.09.155.065c.03.014.056.034.078.059.061.049.105.117.123.194.01.071.01.143 0 .214v.156a.29.29 0 0 1-.091.175.316.316 0 0 1-.194.123.786.786 0 0 1-.201 0h-3.008v.888l.032.039z"/></g><defs><clipPath id="a"><path fill="#fff" transform="translate(.5 .301)" d="M0 0h179v43.141H0z"/></clipPath></defs></svg>