<svg width="180" height="25" fill="none" xmlns="http://www.w3.org/2000/svg"><g style="mix-blend-mode:luminosity"><path d="M53.865 15.497h-4.88V1.633l4.88 7.53v6.334zM68.233 1.663v13.834h-4.94v-6.28l4.94-7.554zM68.233.436 58.61 15.06 48.985.436h4.541l4.985 7.756L63.467.436h4.766zM74.213 15.527h-5.294L77.51.436h1.574l8.592 15.091h-5.302l-3.795-7.2-.27-.571-.016.03-4.081 7.741zM88.354.707h4.925V12.04h7.824v3.487H88.354V.707zM137.973.707v14.805h-1.574l-10.257-7.508v7.523h-4.924V.436h1.573l10.257 7.681V.707h4.925zM152.718 15.527l-7.192-7.387v7.387h-4.925V.707h4.925v6.71l6.25-6.71h5.724l-6.499 7.048 7.56 7.772h-5.843zM107.075 15.527h-5.301l8.6-15.091h1.573l8.593 15.091h-5.302l-3.795-7.2-.271-.571-.015.03-4.082 7.741zM164.239 15.527h-5.301L167.537.436h1.574l8.592 15.091h-5.301l-3.795-7.2-.271-.571-.016.03-4.081 7.741z" fill="#BAE2C6"/><path d="M175.219 19.872h-1.762v-.61h4.247v.64h-1.762v4.518h-.753l.03-4.548zm-5.739 0v1.785h2.576v.617h-2.583v2.071h-.753v-5.083h3.622v.64l-2.862-.03zm-2.68 3.856v.64h-3.72v-5.106h3.622v.64h-2.884v1.544h2.575v.625h-2.575v1.657h2.982zm-6.025-4.519v5.129h-.602l-3.08-3.826v3.826h-.753v-5.076h.602l3.103 3.765v-3.765l.73-.053zm-8.231 5.189c-.378 0-.755-.06-1.114-.18a2.264 2.264 0 0 1-.844-.468l.272-.572c.221.19.476.336.753.43.301.109.62.165.941.165.333.023.666-.053.956-.218a.657.657 0 0 0 .317-.573.564.564 0 0 0-.174-.43 1.149 1.149 0 0 0-.421-.255 6.88 6.88 0 0 0-.716-.196 7.324 7.324 0 0 1-.933-.278 1.5 1.5 0 0 1-.61-.43 1.14 1.14 0 0 1-.256-.753c-.006-.267.07-.53.218-.753.164-.234.391-.417.655-.527a2.659 2.659 0 0 1 1.092-.196c.303.001.604.041.896.12.269.069.524.184.753.34l-.241.587a2.639 2.639 0 0 0-1.438-.414 1.582 1.582 0 0 0-.934.226.697.697 0 0 0-.309.587.564.564 0 0 0 .174.43c.126.114.274.201.436.255.233.078.469.144.708.196.317.072.629.165.934.279.231.09.438.235.602.422.175.21.266.479.256.753.006.267-.07.53-.218.753-.168.236-.401.42-.67.527a2.757 2.757 0 0 1-1.077.195l-.008-.022zm-5.926 0a2.13 2.13 0 0 1-1.597-.587 2.329 2.329 0 0 1-.572-1.687v-2.862h.753v2.884c0 1.1.482 1.65 1.446 1.65a1.388 1.388 0 0 0 1.077-.407c.277-.352.411-.796.376-1.243v-2.884h.708v2.914a2.314 2.314 0 0 1-.572 1.687 2.14 2.14 0 0 1-1.612.558l-.007-.023zm-6.235-2.26c.378.026.753-.08 1.061-.3a1.045 1.045 0 0 0 .369-.859 1.022 1.022 0 0 0-.369-.85 1.655 1.655 0 0 0-1.061-.295h-1.243v2.312l1.243-.007zm1.453 2.185-1.107-1.574h-1.589v1.559h-.753v-5.046h2.003a2.382 2.382 0 0 1 1.567.474 1.619 1.619 0 0 1 .572 1.31c.01.36-.093.713-.294 1.01a1.654 1.654 0 0 1-.836.61l1.22 1.724-.783-.067zm-8.027-.543c.355.006.706-.082 1.016-.256.296-.167.54-.412.708-.707a2.072 2.072 0 0 0 0-2.019 1.88 1.88 0 0 0-.708-.707 2.015 2.015 0 0 0-1.016-.257 2.06 2.06 0 0 0-1.025.256c-.312.16-.573.406-.753.708a2.083 2.083 0 0 0 0 2.019c.18.302.441.547.753.707.314.173.667.262 1.025.256zm0 .655a2.867 2.867 0 0 1-1.401-.338 2.513 2.513 0 0 1-.979-.942 2.705 2.705 0 0 1 0-2.68c.234-.398.572-.724.979-.942a3.011 3.011 0 0 1 2.794 0c.404.219.74.544.971.941a2.75 2.75 0 0 1 0 2.689 2.498 2.498 0 0 1-.971.941c-.43.222-.91.33-1.393.317v.015zm-7.335-5.173h.753v4.518h2.779v.64h-3.532v-5.158zm-1.95 4.518v.64h-3.721v-5.158h3.623v.64h-2.885v1.544h2.576v.625h-2.576v1.657l2.983.052zm-7.606 0c.326.023.653-.047.941-.203a.757.757 0 0 0 .316-.648c0-.572-.416-.858-1.25-.858h-1.671v1.71h1.664zm-1.664-3.953v1.641h1.506c.303.02.605-.054.866-.21a.755.755 0 0 0 0-1.22 1.507 1.507 0 0 0-.866-.211h-1.506zm2.718 1.875c.276.07.522.229.7.452.177.236.267.526.256.82a1.175 1.175 0 0 1-.504 1.025 2.5 2.5 0 0 1-1.461.361H114.5v-5.098h2.305c.48-.03.958.094 1.363.354a1.146 1.146 0 0 1 .482.971c.005.245-.06.485-.188.693a1.223 1.223 0 0 1-.513.422h.023zm-10.934.889v1.77h-.753v-1.785l-2.033-3.314h.753l1.641 2.703 1.679-2.703h.754l-2.041 3.329zm-5.769 1.19c.327.022.654-.048.942-.204a.755.755 0 0 0 .316-.648c0-.572-.417-.858-1.25-.858H99.59v1.71h1.679zm-1.686-3.947v1.642h1.506c.303.019.605-.055.866-.21a.756.756 0 0 0 .229-.953.756.756 0 0 0-.229-.268 1.507 1.507 0 0 0-.866-.21h-1.506zm2.718 1.875c.277.07.522.23.7.452.177.237.267.526.256.821a1.176 1.176 0 0 1-.504 1.024 2.499 2.499 0 0 1-1.461.362h-2.447v-5.106h2.304c.48-.03.958.094 1.363.354a1.134 1.134 0 0 1 .482.971c.005.245-.06.485-.188.693-.127.184-.301.33-.505.422v.007zm-12.094 2.026c.378.008.753-.075 1.092-.24.313-.147.575-.383.753-.678a2.108 2.108 0 0 0 0-2.019 1.747 1.747 0 0 0-.753-.677 2.372 2.372 0 0 0-1.092-.241h-1.385v3.855h1.385zm-2.116-4.518h2.161c.501-.01.997.102 1.446.324.406.201.746.515.98.903a2.74 2.74 0 0 1 0 2.674 2.372 2.372 0 0 1-.98.903 3.126 3.126 0 0 1-1.446.324h-2.16v-5.128zm-1.95 4.518v.64h-3.72v-5.113h3.622v.64h-2.884v1.544h2.575v.625H83.16v1.657l2.982.007zm-7.832-1.543c.378.025.753-.082 1.062-.302a1.046 1.046 0 0 0 .369-.858 1.031 1.031 0 0 0-.37-.851 1.657 1.657 0 0 0-1.061-.294h-1.242V22.2l1.242-.008zm1.453 2.183-1.107-1.574H77.067v1.56h-.753v-5.099h2.04a2.38 2.38 0 0 1 1.567.474 1.619 1.619 0 0 1 .572 1.31c.01.36-.093.713-.294 1.01-.206.287-.5.501-.836.61l1.22 1.724-.82-.015zm-5.376-.64v.64h-3.72v-5.113h3.622v.64h-2.892v1.544h2.576v.625h-2.576v1.657l2.99.007zm-5.377-4.518-1.717 5.128h-.753l-1.4-4.096-1.401 4.096h-.754l-1.754-5.083h.753l1.386 4.142 1.43-4.142h.678l1.416 4.195 1.423-4.195.693-.045zM57.322 23.78c.355.006.706-.082 1.016-.256.296-.167.54-.412.708-.707a2.079 2.079 0 0 0 0-2.019 1.883 1.883 0 0 0-.708-.707 2.017 2.017 0 0 0-1.016-.257 2.056 2.056 0 0 0-1.025.256c-.312.16-.573.406-.753.708a2.079 2.079 0 0 0 0 2.019c.18.302.44.547.754.707.313.173.666.262 1.024.256zm0 .655a2.87 2.87 0 0 1-1.401-.338 2.515 2.515 0 0 1-.979-.942 2.704 2.704 0 0 1 0-2.68c.234-.398.572-.724.979-.942a3.013 3.013 0 0 1 2.794 0 2.5 2.5 0 0 1 .971.941 2.749 2.749 0 0 1 0 2.689 2.5 2.5 0 0 1-.971.941c-.43.222-.91.33-1.393.317v.015zm-6.386-2.259c.378.024.752-.082 1.062-.3a1.177 1.177 0 0 0 0-1.71 1.657 1.657 0 0 0-1.062-.294h-1.25v2.304h1.25zm0-2.936a2.38 2.38 0 0 1 1.566.474 1.792 1.792 0 0 1 0 2.62 2.38 2.38 0 0 1-1.566.475h-1.25v1.551h-.7v-5.098l1.95-.023z" fill="#fff"/><path d="M20.151 24.42 4.744.49h6.988a2.56 2.56 0 0 1 2.154 1.174l6.86 10.656 6.853-10.656A2.56 2.56 0 0 1 29.752.49h6.989L21.333 24.42h-1.182z" fill="#BAE2C6"/><path d="M16.552 18.833 4.744.489h6.988a2.56 2.56 0 0 1 2.154 1.174l6.86 10.656-4.194 6.514zM39.188 24.42l-6.145-9.556-6.114 9.556h12.26zM14.556 24.42l-6.152-9.556-6.108 9.556h12.26z" fill="#fff"/></g></svg>