<svg width="180" height="51" fill="none" xmlns="http://www.w3.org/2000/svg"><g style="mix-blend-mode:luminosity" clip-path="url(#a)"><path d="M67.617 18.764c-.152-.155-.24-.296-.366-.493-.066-.099-.136-.207-.215-.322.217-.251.4-.542.54-.861l.554-1.265-1.366-.196c-.23-.034-.602-.13-1.036-.246-.838-.22-1.913-.503-3.085-.626.4-.175.74-.492.978-.921l.225-.406s-.06-.568-.28-.746c.084-.176.15-.37.194-.582l.186-.905-.874-.299a2.355 2.355 0 0 0-.406-.102 2.883 2.883 0 0 0-.222-.526l-.518-.95-.935.547c-.232.136-.429.293-.588.468a2.404 2.404 0 0 0-.445-.039s-.534-.06-1.123.154l-.753-.782-.893-.953c-.834-.893-1.965-1.158-3.116-.718-.44-.44-1.125-.803-2.19-.803-.361 0-.678.044-.864.068 0 0-1.465.267-2.29 1.05l-.999-.477c-.67 1.055-1.816 1.39-1.816 1.39a2.52 2.52 0 0 0-.403-.861l.066-.372c0-.01.224-1.27.91-2.338l1.193-1.859-1.69.191a4.658 4.658 0 0 0-.026-.602l-.152-1.445-1.324.6c-.147.065-.27.13-.385.19l-.261-.557-.607.314a4.87 4.87 0 0 0-.246-.516L42.29.685l-.992 1.071c-.102.11-.188.212-.262.31l-.601-.6-.607.602a4.734 4.734 0 0 0-.262-.31L38.564.686l-.702 1.289a4.749 4.749 0 0 0-.243.513l-.604-.315-.262.558c-.115-.06-.238-.126-.385-.194L35.04 1.94l-.147 1.45c-.023.234-.03.43-.026.598l-1.693-.191 1.196 1.859c.688 1.065.908 2.325.908 2.335l.063.372a2.504 2.504 0 0 0-.403.864s-1.083-.464-1.808-1.393l-1.02.487c-1.165-.786-1.887-1.092-3.143-1.128-1.065-.03-1.75.363-2.19.803-1.154-.437-2.282-.173-3.114.72 0 0-.547.594-.893.953-.345.362-.855.66-.855.66s-.725-.162-1.47.008a2.538 2.538 0 0 0-.595-.471l-.937-.548-.515.956c-.1.183-.17.356-.217.521-.134.02-.27.055-.406.102l-.869.304.181.9c.044.218.107.412.194.587-.05.097-.095.199-.131.306l-.147.438.223.405c.235.427.573.746.976.922-1.175.123-2.248.406-3.088.626-.432.112-.803.212-1.034.246l-1.37.199.31.706.25.563c.14.315.326.605.54.857-.08.115-.426.657-.58.811l-.693.705.664.733c.084.089.83.872 2.036.874.33 0 .657-.058.981-.173.322.503.704 1.014 1.052 1.265-.641.754-1.371 1.408-2.41 1.903l-.869.414.374.992c.244.6.717 1.257 1.633 1.508-.196.587-.29 1.142-.374 1.637-.196 1.175-.28 1.662-1.313 2.026l-.93.325.268.947c.214.773.536 1.283.884 1.621l-.617.68s1.465 1.1 2.901 1.234c.021.002 1.246.081 1.796-.62.22.795.567 1.528.884 2.193.649 1.367.994 2.176.56 2.914l-.981 1.666 1.928-.082c.843-.034 1.625-.086 2.303-.254 0 .037-.003.071-.005.105l-.157 1.43 1.69-.356c.178-.053.345-.124.497-.205 1.047 1.226 2.826 2.181 5.223 2.181h.139l-2.756 1.131 2.007 1.045c1.322.688 2.79 1.264 4.464 1.754l-.233.804 1.008.296c.581.17 2.682.727 5.241.727 2.56 0 4.658-.557 5.242-.727l1.004-.296-.233-.801c1.678-.49 3.146-1.066 4.467-1.755l2.007-1.044-2.758-1.131h.139c2.397 0 4.173-.956 5.22-2.181.152.081.32.152.497.204l1.69.356-.154-1.427a1.47 1.47 0 0 1-.005-.107c.675.167 1.46.217 2.3.254l1.929.081-.976-1.663c-.437-.738-.09-1.547.557-2.913.317-.665.665-1.398.884-2.194.372.282.772.453 1.17.542 0 0 .309.091.605.099.853.026 1.279-.217 1.865-.586l1.065-.67-.623-.681c.349-.335.67-.846.885-1.616l.27-.95-.932-.325c-1.036-.364-1.117-.85-1.314-2.026-.083-.495-.175-1.053-.374-1.637.916-.254 1.387-.91 1.63-1.508l.372-.995-.869-.413c-1.039-.495-1.769-1.15-2.412-1.904.35-.251.732-.762 1.057-1.264.322.115.649.17.981.173 1.206 0 1.955-.783 2.036-.872l.665-.733-.694-.712z" fill="#fff"/><path fill-rule="evenodd" clip-rule="evenodd" d="M31.92 31.666V23.68c0-.743-.214-1.487-.47-2.17h6.193c.568.78 1.599 1.304 2.782 1.304 1.177 0 2.208-.524 2.779-1.304h6.193c-.261.686-.473 1.427-.473 2.17v7.986H31.92zm8.502 10.912c-.866-.861-1.484-.956-3.818-.956-2.79 0-4.684-1.636-4.684-4.251v-5.237h17.001v5.237c0 2.615-1.892 4.252-4.687 4.252-2.331-.003-2.949.094-3.812.955z" fill="#FFDD2D"/><path d="M32.906 43.565v1.594l-1.384.558c1.17.532 2.622 1.06 4.328 1.45l.785-2.557c-1.674-.343-2.842-.702-3.729-1.045zM40.422 45.725c-1.635 0-3.012-.17-3.561-.296l-.83 2.684c1.303.32 2.829.555 4.391.555 1.557 0 3.083-.233 4.391-.555l-.832-2.684c-.55.129-1.92.296-3.559.296zM47.936 43.565c-.89.343-2.054.7-3.728 1.047l.787 2.558c1.709-.39 3.156-.919 4.326-1.45l-1.382-.558v-1.597h-.003zM30.007 17.842c2.167-1.17 7.463-3.747 3.873-6.525-.49-.377-1.029-.717-1.481-1.139-.56.432.21 1.506.403 1.899 0 0-1.196.12-1.481.12-1.848-.008-3.784-1.102-2.803-3.2-.735.152-.824.86-1.049 1.464-.471-.32-1.29-1.005-1.92-.908.512 1.641 2.671 3.12 4.346 3.456-1.693.921-4.833 1.607-6.485-.377-1.159 2.243.456 3.18 2.039 4.356-6.026 2.752-5.137 5.839-9.09 8.268.512.241 2.8-.243 3.003-.272-.858 1.113-1.258 1.584-1.51 2.126-.24.508-.347 1.081-.585 2.317-.186.977-.526 1.95-1.714 2.597.465.843 1.499.183 1.93.07-.057.09-.203 1.106-.59 1.595 2.03-.13 1.09-4.414 3.121-3.382.573.288.746.963.482 1.516-1.335 2.754 1.698 5.18 1.533 7.595.746-.005 1.518-.026 2.004-1.034.254.502.647 1.21.866 1.89l.608-1.034c.374 1.712 1.97 3.293 4.126 3.435-1.028-1.629.204-3.851-2.295-6.216.311-.251 1.031-.735 1.287-1.065-3.066.361-6.266-2.066-4.814-3.218.95-.752 1.366.809 2.831.547l-.573-.495c.201-.199.432-.458.67-.654-.623-.076-1.303-.474-1.303-.474l.371-.615c-3.592-.006-3.684-2.755-2.224-2.865.686-.05 1.573 1.215 3.784.95-.283-.34-.395-.855-.529-1.235.534-.05 1.162-.044 1.667-.29-1.08-.14-1.353-.503-2.253-1.184l1.044-.382c-1.515-.757-1.423-2.074-1.47-3.446.793.456 1.724 1.163 2.719.835.235-.078.387-.188.392-.434-1.418-.568-2.329-2.754 1.07-4.592zm-2.588.214c-1.897 2.03-1.075 3.244-.693 3.619-.707-.152-1.761-1.053-1.52-1.925-.226.27-.456.563-.691.864a26.868 26.868 0 0 0-1.267 1.84c-.575 1.713.48 3.48 2.274 4.263-1.994-.293-2.889-2.068-2.883-3.2-.953 1.802-1.408 3.446-1.366 4.826.018.513.063.992.13 1.445.458.87 1.194 1.189 2.505 1.349-1.19.075-1.822.02-2.34-.524.811 3.49 4.606 6.511 6.15 9.098-1.547-2.01-4.747-5.006-5.867-7.171-.086.783.123 2.788 1.096 4.021-1.434-1.41-1.546-3.547-1.452-4.799a8.688 8.688 0 0 1-.625-3.05c-.029-1.052.044-1.966.204-2.785-.905 1.288-2.214 1.785-2.858 3.746.126-2.53 2.013-2.568 3.426-5.64.547-1.343 1.342-2.503 2.221-3.817-1.117.367-1.954.629-3.247 2.045.918-2.173 6.225-4.616 8.656-6.98-.73.155-3.71.23-4.948-.597 2.242.607 7.232-.086 9.116-1.374-1.3 1.872-4.131 1.979-7.578 5.702a8.405 8.405 0 0 1 1.557-.956zM63.574 29.427c-.238-1.236-.342-1.809-.583-2.317-.249-.542-.652-1.013-1.513-2.126.204.029 2.497.513 3.007.273-3.954-2.43-3.064-5.517-9.093-8.269 1.583-1.175 3.198-2.112 2.038-4.359-1.65 1.987-4.79 1.302-6.484.377 1.678-.335 3.834-1.812 4.346-3.456-.633-.097-1.452.59-1.923.906-.225-.605-.311-1.311-1.046-1.466.98 2.1-.958 3.194-2.808 3.202-.283 0-1.476-.12-1.476-.12.191-.393.96-1.467.398-1.899-.453.425-.987.762-1.479 1.14-3.592 2.777 1.709 5.356 3.876 6.524 3.393 1.838 2.49 4.024 1.07 4.584.005.246.157.356.395.435.99.33 1.926-.377 2.713-.836-.044 1.372.05 2.692-1.465 3.446l1.042.382c-.9.68-1.17 1.045-2.25 1.184.502.246 1.135.24 1.666.29-.136.38-.254.896-.531 1.236 2.214.262 3.103-1 3.784-.95 1.454.11 1.368 2.859-2.227 2.864l.371.615s-.68.398-1.305.474c.238.194.47.456.672.655l-.573.494c1.463.262 1.881-1.298 2.831-.547 1.453 1.152-1.745 3.58-4.814 3.218.259.33.978.817 1.29 1.068-2.502 2.361-1.272 4.587-2.295 6.218 2.15-.144 3.747-1.725 4.126-3.438l.607 1.035c.218-.681.615-1.388.864-1.89.484 1.007 1.261 1.028 2.01 1.033-.17-2.413 2.86-4.84 1.53-7.595-.267-.55-.094-1.225.48-1.516 2.035-1.031 1.09 3.252 3.124 3.383-.39-.49-.534-1.505-.59-1.594.43.112 1.46.772 1.927-.074-1.18-.633-1.52-1.607-1.712-2.584zm-3.802-3.503c.16.822.241 1.733.204 2.786a8.745 8.745 0 0 1-.625 3.05c.092 1.251-.018 3.388-1.452 4.799.97-1.236 1.182-3.238 1.096-4.021-1.125 2.165-4.323 5.16-5.872 7.17 1.547-2.586 5.34-5.61 6.155-9.097-.524.542-1.149.6-2.342.523 1.308-.16 2.043-.479 2.501-1.348.068-.45.113-.932.131-1.445.045-1.38-.413-3.024-1.366-4.826.008 1.132-.887 2.907-2.883 3.2 1.79-.785 2.847-2.553 2.274-4.263a23.844 23.844 0 0 0-1.267-1.84 30.31 30.31 0 0 0-.693-.864c.24.872-.814 1.772-1.52 1.924.384-.374 1.203-1.589-.691-3.618a8.785 8.785 0 0 1 1.56.95c-3.447-3.723-6.276-3.827-7.581-5.702 1.886 1.288 6.876 1.985 9.116 1.375-1.235.827-4.218.751-4.948.597 2.43 2.364 7.743 4.807 8.659 6.98-1.293-1.417-2.133-1.679-3.245-2.045.882 1.317 1.672 2.474 2.219 3.817 1.416 3.071 3.305 3.108 3.428 5.64-.644-1.956-1.95-2.454-2.858-3.742z" fill="#fff"/><path d="M43.2 21.507c-.567.78-1.6 1.304-2.776 1.304-.274 0-.539-.032-.79-.079.07.322.236.655.578.94-.138.935.265 1.81 1.267 2.037.107.477.4.835.898 1.006l-.7.806c-.269.309-.62.408-.902.372l-3.12-.354c.137-.345-.224-.746-1.213-.576l1.224-3.43-.745-1.589-1.416 1.21-.105 3.597-.61-.296c-.785-.34-1.017 1.092-.269 1.097l.301.003c-.021.147.026.309.144.361-.141.058-.183.322-.008.416-.178.087-.204.36-.06.477-.155.264-.183.838.364.982.45.118.732-.364.824-.644l4.854 1.503c.683.196 1.175.086 1.745-.414l1.267-1.108c-.16.726.1 1.378.651 1.595 0 0-.086.665-.052.94l1.698.002h2.674V23.68c0-.744.212-1.487.474-2.173h-6.196zM35.932 34.944l.094.118c.13.162.21.123.359.036l.22-.118c.138-.104 1.04.241 1.09-.51.1.56-.567 1.74-.164 2.4l.541.888-1.769.026a.373.373 0 0 0-.347.223l-.464.96c-.12.255-.112.517.04.692l.313.353s.257-.217.34-.502l-.138-.144c-.115-.11-.115-.215-.052-.351l.285-.592c.11-.233.222-.282.474-.222l1.43.309c.106.026.276.076.378-.1.175-.311.484-.332.798-.283.785.118 2.598.307 3.245-.45.758 1.008 2.242 1.008 2.145 1.537l-.314 1.733h.471l.288-1.772c.031-.207.16-.49-.063-.65-.091-.07-.133-.107-.34-.463-.27-.471-.256-1.178-.516-1.788.247-.29.513-.39.746-.335.524.128.665 1.031 1.408 1.767-.084-.328-.12-.686-.296-.998 0 0 .516.4.65.87.083.293.17.507.434.644.175.063.384-.021.594-.273 0 0-.49-.696-.848-1.152-.492-.625-1.149-1.254-2.044-1.18-.282.023-.554.151-.814.306-1.017-.57-1.808.034-2.122.034l-1.905-.113c-.374-.023-.67-.458-.67-.458-.047-1.613-1.342-2.254-1.79-2.254 0 0 .042-.29-.075-.393l-.398.5-1.104-.403.866.71-.94 1.091c-.096.108-.083.25-.036.307z" fill="#fff"/><path d="M34.684 37.208c-.267.207-.254.495-.094.817l.16.299.416-.317-.095-.205c-.068-.144-.065-.29.053-.382l.596-.45c.168-.123.22-.136.398-.11l1.259.264s-.191-.277-.254-.56l-1.185-.157c-.168-.021-.27.05-.417.162l-.837.64zM42.732 40.947h.477l.764-1.882c.026-.066.062-.095.091-.15a5.52 5.52 0 0 1-.83-.395c.192.257.34.367.262.605l-.764 1.822zM43.138 15.486l.882-5.072-3.342 1.136v5.229l2.46-1.293zm-1.895-3.422 2.217-.817s-.432.35-.947.704c-.459.317-1.27.655-1.27.655v-.542zm0 1.228 2.028-.726s-.243.257-.756.61c-.458.315-1.269.652-1.269.652v-.536h-.003zm0 1.303 1.785-.686s0 .218-.515.568c-.459.317-1.27.655-1.27.655v-.537z" fill="#fff"/><path d="m37.193 19.97.073.118h.689l.007.12c.008.116.034.234.074.354.107.328.319.67.659.948.395.32.966.55 1.724.55 1.646 0 2.39-1.066 2.46-1.851l.005-.12h.691l.074-.118c.648-1.016 1.441-2.145 2.362-2.307L43.5 16.206l-3.08 1.675-3.082-1.675-2.51 1.458c.922.16 1.715 1.29 2.366 2.307z" fill="#fff"/><path d="M40.16 16.779V11.55l-3.336-1.136.877 5.072 2.46 1.293zm-.562-1.642s-.811-.34-1.27-.654c-.515-.351-.515-.571-.515-.571l1.787.686v.54h-.002zm0-3.073v.542s-.811-.338-1.27-.655c-.517-.353-.952-.704-.952-.704l2.222.817zm0 1.228v.539s-.811-.338-1.27-.652c-.517-.354-.758-.61-.758-.61l2.028.723zM40.422 8.178c-1.908 0-3.34.626-3.65 1.36l3.65 1.442 3.645-1.443c-.309-.733-1.738-1.359-3.645-1.359zM40.422 6.084c1.405 0 2.813.427 3.76.98.154-.511.32-.875.544-1.292l-.863.134-.699-1.492-1.306.694-1.436-1.422-1.44 1.421-1.302-.693-.704 1.492-.864-.134c.225.417.387.78.547 1.291.95-.552 2.352-.979 3.763-.979zM64.234 17.578c.47-.06.85-.218 1.313-.564-.997-.264-3.085-1.02-4.867-.68-.589.078-.916.317-.706.453.957.636 2.14 2.11 3 3.83.757-.94.44-2.173.281-2.527 1.507.91 1.902 1.352 2.6 1.179-.373-.574-.9-1.09-1.621-1.691zM17.868 20.615c.861-1.72 2.044-3.194 3.004-3.83.215-.137-.118-.375-.701-.454-1.785-.337-3.878.417-4.875.681.468.346.84.503 1.316.563-.725.605-1.25 1.118-1.625 1.691.704.173 1.097-.27 2.601-1.178-.154.356-.473 1.587.28 2.527z" fill="#fff"/><path fill-rule="evenodd" clip-rule="evenodd" d="M28.317 36.58c.693-.55 1.269-.825 1.24-2.157-1.042.534-3.996.505-5.23-1.197-.349-.484.023-.728.36-.345.845.958 2.41.523 2.98.248-.091-.33-.345-.759-.557-.942.215-.21.82-.524.942-1.063-.322-.175-1.575-.301-1.575-.301.201-.194.453-.464.3-1.183-1.279.392-2.862-.142-3.22-.616-.354-.466.008-.903.306-.594.638.67 3.784 1.437 4.953.272-.434-.12-.913-.508-1-.749 1.084-.11 1.948-.748 2.018-1.544-.599 0-1.73-.045-2.117-.333.518-.191.848-.38 1.013-.96-1.98-.121-2.138-1.593-2.148-1.836 1.29.744 3.561.414 2.972-1.42-1.073-.057-2.153-1.792.796-3.387 2.682-1.453 5.73-3.019 5.46-5.597-.175-1.65-2.888-2.776-3.233-3.61-1.133.538-1.361 1.164-.85 2.214 0 0-2.526.251-2.725-1.304-.086-.696.38-1.348.88-1.848-.283 0-2.186-.51-2.759 1.04-1.065-.729-1.978-.702-2.695.067 1.146.68 1.855 3.016 3.75 3.705-1.348.73-3.527.424-4.8-1.822-1.203 1.814-1.896 3.61.686 5.53-4.697 2.138-4.663 6.228-8.75 8.176.414 1.112 1.288 1.112 2.402.94-1.766 2.296-.261 4.7-3.059 5.68.262.938.788 1.687 1.819 1.412-.293.458-.487.448-.942.95 1.528.964 3.342.268 3.752-2.824.074-.553.832-.207.57.335-1.742 3.605 2.665 6.317 1.105 8.961 1.374-.057 2.423-.164 2.994-.628.28.555.45 1.105.387 1.647.759-.154 1.036-.602 1.088-1.12.497 1.453 2.277 3.005 5.124 3.005-1.51-2.157-.105-4.343-2.237-6.802zm-2.81 2.658-.608 1.034c-.217-.681-.612-1.388-.866-1.89-.49 1.007-1.261 1.028-2.004 1.034.165-2.414-2.868-4.841-1.534-7.596.267-.55.092-1.225-.481-1.516-2.033-1.031-1.091 3.252-3.122 3.383.387-.49.534-1.505.591-1.594-.431.112-1.465.772-1.93-.071 1.187-.647 1.527-1.62 1.713-2.597.236-1.236.346-1.81.584-2.317.251-.542.651-1.014 1.51-2.126-.204.029-2.489.513-3.004.272 3.953-2.43 3.064-5.516 9.09-8.268-1.58-1.176-3.195-2.113-2.038-4.357 1.65 1.985 4.788 1.299 6.484.377-1.675-.335-3.834-1.811-4.344-3.456.63-.096 1.45.59 1.918.909.228-.607.317-1.312 1.052-1.464-.981 2.098.955 3.192 2.803 3.2.287 0 1.48-.12 1.48-.12-.19-.393-.962-1.467-.402-1.899.452.424.991.762 1.48 1.14 3.593 2.78-1.706 5.356-3.872 6.526-3.4 1.838-2.489 4.027-1.07 4.585-.006.246-.157.355-.393.434-.994.33-1.926-.38-2.718-.835.047 1.372-.048 2.691 1.47 3.445l-1.044.38c.898.683 1.172 1.045 2.253 1.186-.505.246-1.13.24-1.667.29.136.38.246.896.529 1.236-2.212.262-3.099-1-3.784-.95-1.46.11-1.369 2.859 2.224 2.864l-.371.616s.68.398 1.305.473c-.238.194-.468.456-.67.655l.573.495c-1.467.262-1.88-1.299-2.833-.547-1.453 1.152 1.747 3.579 4.814 3.217-.256.33-.978.817-1.287 1.069 2.499 2.361 1.266 4.586 2.295 6.218-2.156-.142-3.752-1.726-4.127-3.435z" fill="#000"/><path fill-rule="evenodd" clip-rule="evenodd" d="M21.564 30.613c.52.542 1.148.6 2.339.524-1.311-.16-2.046-.48-2.504-1.349-.066-.45-.11-.932-.129-1.445-.041-1.38.414-3.024 1.366-4.825-.005 1.128.887 2.903 2.884 3.2-1.795-.786-2.85-2.553-2.274-4.263.374-.597.796-1.215 1.267-1.84a35.5 35.5 0 0 1 .69-.865c-.24.872.814 1.773 1.52 1.925-.381-.375-1.203-1.587.694-3.616a8.982 8.982 0 0 0-1.56.95c3.444-3.723 6.278-3.827 7.579-5.702-1.884 1.288-6.875 1.985-9.117 1.374 1.238.828 4.218.752 4.948.598-2.428 2.364-7.735 4.806-8.656 6.98 1.293-1.42 2.13-1.679 3.25-2.043-.882 1.317-1.675 2.474-2.221 3.817-1.413 3.069-3.303 3.108-3.426 5.637.644-1.96 1.952-2.458 2.858-3.746-.16.822-.236 1.733-.207 2.786a8.685 8.685 0 0 0 .625 3.05c-.091 1.251.019 3.388 1.453 4.799-.974-1.233-1.183-3.239-1.097-4.022 1.123 2.165 4.323 5.16 5.87 7.171-1.547-2.584-5.339-5.605-6.152-9.095zM56.985 20.217c1.112.366 1.952.625 3.245 2.044-.916-2.173-6.23-4.615-8.658-6.98.73.152 3.713.23 4.948-.597-2.24.61-7.23-.086-9.117-1.374 1.303 1.875 4.134 1.98 7.58 5.702a8.775 8.775 0 0 0-1.559-.95c1.895 2.029 1.075 3.244.69 3.618.707-.152 1.762-1.052 1.521-1.924.228.27.458.563.694.864.473.628.892 1.243 1.266 1.84.576 1.713-.481 3.48-2.271 4.263 1.996-.294 2.891-2.071 2.88-3.2.956 1.802 1.411 3.446 1.37 4.826-.019.513-.063.992-.132 1.445-.46.869-1.195 1.188-2.504 1.348 1.194.073 1.819.018 2.342-.523-.814 3.49-4.605 6.51-6.154 9.098 1.549-2.011 4.744-5.006 5.872-7.172.086.783-.123 2.789-1.097 4.022 1.434-1.411 1.544-3.548 1.452-4.8.362-.9.59-1.905.626-3.05a12.522 12.522 0 0 0-.204-2.785c.908 1.288 2.213 1.786 2.86 3.747-.123-2.532-2.012-2.571-3.428-5.64-.55-1.35-1.34-2.508-2.222-3.822z" fill="#000"/><path fill-rule="evenodd" clip-rule="evenodd" d="M63.13 25.958c1.112.176 1.986.176 2.402-.937-4.087-1.948-4.053-6.035-8.75-8.177 2.583-1.916 1.887-3.715.685-5.53-1.269 2.247-3.456 2.554-4.799 1.823 1.89-.688 2.604-3.024 3.75-3.704-.717-.77-1.633-.796-2.698-.069-.575-1.55-2.475-1.039-2.76-1.039.497.497.968 1.15.879 1.848-.197 1.556-2.722 1.304-2.722 1.304.51-1.05.283-1.675-.85-2.215-.345.835-3.056 1.961-3.234 3.61-.272 2.58 2.781 4.145 5.46 5.598 2.95 1.595 1.87 3.333.799 3.388-.594 1.833 1.677 2.163 2.97 1.42-.005.243-.17 1.714-2.151 1.835.167.58.495.77 1.013.96-.388.291-1.518.333-2.115.333.071.796.937 1.437 2.02 1.545-.086.24-.568.628-1 .748 1.17 1.165 4.316.398 4.954-.272.293-.309.652.128.301.594-.361.477-1.941 1.011-3.224.616-.146.717.1.99.301 1.183 0 0-1.253.126-1.578.301.123.54.73.851.942 1.063-.214.183-.468.613-.56.943.576.277 2.141.71 2.981-.25.34-.379.712-.138.364.347-1.235 1.701-4.19 1.727-5.234 1.196-.029 1.333.547 1.608 1.24 2.157-2.135 2.459-.724 4.645-2.234 6.797 2.844 0 4.624-1.553 5.12-3.006.058.516.33.967 1.087 1.121-.058-.542.11-1.092.387-1.647.576.464 1.625.571 2.999.629-1.557-2.645 2.85-5.357 1.101-8.962-.259-.542.5-.888.573-.335.409 3.092 2.225 3.788 3.755 2.825-.46-.503-.651-.493-.944-.95 1.03.274 1.554-.475 1.818-1.412-2.784-.98-1.28-3.383-3.048-5.679zm.235 6.137c.055.09.2 1.105.59 1.595-2.034-.131-1.092-4.415-3.125-3.383-.573.288-.743.963-.479 1.516 1.33 2.754-1.7 5.181-1.53 7.595-.75-.005-1.526-.026-2.01-1.034-.249.503-.65 1.21-.867 1.89l-.607-1.034c-.376 1.712-1.973 3.294-4.124 3.438 1.023-1.629-.206-3.854 2.295-6.218-.314-.252-1.033-.739-1.292-1.069 3.07.362 6.267-2.065 4.814-3.217-.95-.752-1.368.809-2.831.547l.573-.495c-.201-.199-.434-.458-.672-.654.625-.076 1.305-.474 1.305-.474l-.371-.616c3.593-.005 3.679-2.754 2.227-2.864-.683-.05-1.573 1.215-3.784.95.28-.34.395-.856.531-1.235-.534-.05-1.164-.045-1.667-.29 1.081-.14 1.353-.503 2.25-1.184l-1.04-.383c1.514-.756 1.417-2.073 1.465-3.445-.79.456-1.728 1.163-2.714.835-.236-.078-.39-.188-.395-.434 1.42-.56 2.326-2.747-1.07-4.585-2.164-1.17-7.466-3.746-3.876-6.524.492-.377 1.026-.718 1.476-1.139.563.432-.206 1.505-.398 1.898 0 0 1.194.12 1.476.12 1.85-.007 3.79-1.102 2.808-3.201.735.151.822.86 1.047 1.466.47-.32 1.287-1.003 1.923-.906-.516 1.641-2.67 3.12-4.346 3.456 1.693.921 4.833 1.607 6.484-.377 1.156 2.243-.456 3.18-2.039 4.356 6.03 2.75 5.137 5.839 9.093 8.268-.51.241-2.802-.243-3.006-.272.863 1.113 1.266 1.584 1.512 2.126.24.508.346 1.079.584 2.317.188.977.53 1.95 1.714 2.597-.463.836-1.495.176-1.924.063zM34.657 38.852l.861-.73-.13-.262c-.095-.188-.045-.199.055-.272l.455-.338c.104-.087.214-.076.343-.044l1.363.319h-1.44c-.332.02-.428.15-.549.395l-.1.202-.368.76c-.126.261-.191.61.139 1.002l.261.311-.528 1.071h.444l.367-.743c.029-.027.57-.521.685-1.032-.157-.128-.267-.217-.18-.395l.165-.356c.055-.118.073-.165.23-.136l1.429.309c.178.05.44.128.63-.16.197-.299.223-.267.678-.223l.73.079c.997.094 1.994-.155 2.381-.464.136.31.406.548.531.788.047.09-.03.215-.091.372l-.82 1.959h1.265l.714-1.786c.065-.17.162-.306.236-.374l-.411 2.162h1.227l.325-2.139c.07-.476.028-.628-.2-.825-.51-.431-.5-1.337-.664-1.887a.479.479 0 0 1 .309-.06c.267.023.468.707.782 1.146.628.883 1.484 1.857 2.465.485a2.883 2.883 0 0 0-.317-.435l-.274-.322c-.16-.178-.919-1.047-1.236-1.359-.72-.725-1.823-.615-2.263-.261-.997-.524-2.049.026-2.297.005l-1.717-.105a.339.339 0 0 1-.28-.165l.32-.105c-.299-1.243-1.05-2.283-2.361-2.463 0 0-.076-.393-.277-.469l-.393.46c-.11.016-.23.05-.33.092l-1.674-.623 1.256 1.27s-.652.924-.837 1.113c-.123.173-.113.306.026.471l.243.32c.126.164.264.16.466.057l.274-.144c.12-.1.524.097.697-.06-.11.361-.165.71-.191.984l-1.128-.136c-.246-.034-.359 0-.508.118l-.963.74c-.314.242-.41.658-.217 1.064l.392.82zm9.316.212-.764 1.885h-.477l.765-1.825c.078-.235-.071-.345-.262-.602.283.16.487.265.83.396-.03.052-.066.081-.092.146zm-7.369-4.081-.217.115c-.152.086-.227.126-.358-.037l-.095-.12c-.047-.058-.062-.197.034-.307l.937-1.091-.863-.71 1.099.406.403-.503c.117.1.076.39.076.39.445 0 1.74.644 1.79 2.257 0 0 .292.432.667.456l1.907.115c.317 0 1.107-.602 2.122-.034.257-.155.532-.278.814-.309.895-.065 1.554.558 2.044 1.186.358.456.85 1.152.85 1.152-.212.251-.419.335-.594.272-.264-.136-.35-.348-.434-.644-.133-.468-.65-.869-.65-.869.176.314.213.67.297.998-.746-.739-.888-1.64-1.408-1.765-.23-.058-.5.042-.749.33.262.61.25 1.317.519 1.79.204.354.248.385.34.464.22.157.097.443.063.65l-.283 1.772h-.476l.314-1.733c.096-.53-1.387-.53-2.146-1.537-.646.756-2.46.568-3.245.45-.316-.047-.625-.026-.798.285-.102.176-.272.123-.377.097l-1.431-.309c-.251-.057-.361-.008-.47.223l-.286.592c-.063.138-.06.24.055.353l.136.144c-.081.283-.34.5-.34.5l-.312-.35c-.151-.179-.16-.435-.039-.687l.463-.968c.055-.108.154-.223.348-.223l1.769-.026-.541-.882c-.404-.663.266-1.843.164-2.401-.055.746-.957.405-1.099.508zm-1.92 2.225.837-.639c.15-.112.249-.186.419-.165l1.182.157c.066.283.254.56.254.56l-1.258-.264c-.178-.02-.23-.013-.398.108l-.597.45c-.118.092-.123.238-.055.382l.097.207-.416.314-.16-.298c-.162-.317-.172-.608.095-.812zM38.331 14.48c.458.317 1.27.655 1.27.655v-.54l-1.788-.683s0 .22.518.568zM39.597 13.831v-.54l-2.028-.725s.24.257.759.61c.458.315 1.269.655 1.269.655zM39.597 12.605v-.541l-2.221-.817s.434.35.952.704c.458.317 1.27.654 1.27.654z" fill="#000"/><path fill-rule="evenodd" clip-rule="evenodd" d="M45.838 19.97h2.271c-.094-.33-.447-.662-1.11-.662-.627 0-1.004.361-1.161.662zM43.462 11.247l-2.216.817v.541s.811-.337 1.27-.654c.515-.353.947-.704.947-.704zM43.03 13.912l-1.784.686v.54s.811-.341 1.27-.655c.515-.351.515-.57.515-.57zM43.271 12.566l-2.028.726v.539s.814-.338 1.27-.652c.517-.356.758-.613.758-.613zM33.838 19.308c-.662 0-1.015.333-1.109.662h2.274c-.162-.3-.534-.662-1.165-.662z" fill="#000"/><path fill-rule="evenodd" clip-rule="evenodd" d="M44.933 9.79c0-1.277-2.146-2.42-4.514-2.42-2.368 0-4.514 1.143-4.514 2.42l.05.315.942 5.428-4.474 2.61c-.477.28-1.073 1.05-1.15 1.825h.817c.136-.775.746-1.634 1.89-1.582 1.033.055 1.645.684 2.253 1.582l.156.235.225.354h-6.58c.484.971.942 2.003.942 3.12v13.69c0 3.522 2.703 5.2 5.63 5.2 2.261 0 2.568-.102 3.816 1.147 1.243-1.249 1.549-1.147 3.815-1.147 2.925 0 5.631-1.678 5.631-5.2V23.68c0-1.118.458-2.15.942-3.12h-6.586l.228-.354.157-.236c.604-.898 1.219-1.526 2.252-1.581 1.139-.052 1.754.806 1.887 1.581h.814c-.073-.775-.673-1.547-1.146-1.825l-4.475-2.61.945-5.427.047-.317zm-8.112.624 3.34 1.136v5.229l-2.46-1.294-.88-5.071zm.822 11.093c.44.602 1.151 1.047 1.994 1.22.07.317.243.665.578.945-.139.935.262 1.807 1.266 2.037.105.477.4.835.895 1.006l-.698.806a1.025 1.025 0 0 1-.903.372l-3.12-.354c.137-.345-.224-.746-1.21-.576l1.227-3.43-.749-1.589-1.418 1.21-.105 3.597-.601-.296c-.793-.34-1.024 1.092-.27 1.097l.298.003c-.018.147.026.309.142.359-.142.06-.184.327-.006.421-.18.084-.204.356-.06.474-.157.264-.18.838.367.982.447.118.727-.364.819-.644l4.85 1.503c.689.196 1.176.086 1.746-.414l1.267-1.108c-.16.726.102 1.378.654 1.595 0 0-.079.652-.055.943h-12.63V23.68c0-.744-.215-1.487-.472-2.173h6.194zm5.218 3.03c-.267.51-.241 1.096.073 1.628l-.21.204c-.91-.113-1.269-1.471-1.269-1.471-.018.123-.028.24-.026.36-.531-.195-.866-.667-.84-1.313.202.112.427.19.668.233l.062-.398c-.636-.11-1.007-.508-1.148-.98-.032-.002-.058-.01-.087-.013.113.008.225.019.34.019.377 0 .736-.058 1.07-.158.265.378.733.647 1.204.7-.076.314-.039.704.163 1.188zm1.347 3.591a1.371 1.371 0 0 0-.212.42l-.507.465c.102-.743-.398-1.62-.853-1.979l.538-.529.108.11c-.18.474.173 1.403.926 1.513zm-2.452-.233.419-.41c.424.371.984 1.201.809 1.992l-.456.418a1.553 1.553 0 0 1-.29.218c.285-.704-.079-1.788-.482-2.218zm-.9.349h.013a.877.877 0 0 0 .46-.063c.32.455.569 1.492.187 2.139a2.082 2.082 0 0 1-.628-.092l-.157-.047c.321-.5.277-1.385.125-1.937zm-1.054-.131.588.073c.095.49.032 1.335-.28 1.817l-.685-.199c.3-.409.442-1.249.377-1.691zm-1.227-.15.714.084c.07.393-.063 1.228-.333 1.626l-.727-.21c.29-.384.395-1.062.346-1.5zm-2.892-.19c-.332.107-.479-.134-.466-.338.652-.239.942-.084 1.133.036.175.11.322.424.557.62-.039.268-.12.655-.217.915-.667-.17-.7-.76-.452-1.119-.14-.162-.285-.204-.555-.115zm-.466 1.3s.2.084.45.103c-.028.138-.136.27-.306.233-.141-.032-.204-.205-.144-.335zm-.657-1.91c-.165-.11-.091-.352.092-.352.201.006.468.233.733.346 0 0-.694.094-.825.005zm.678 1.387c.144.139.576.086.576.086l.016.087c-.189.251-.712.138-.592-.173zm.581-.285c-.309.123-.625-.045-.529-.244.144.131.545.066.545.066l-.016.178zm.455-3.595-.591 2.154.201-3.476.916-.783.466 1.023-1.177 3.378.311-2.273c.029-.162-.1-.18-.126-.023zm.042 2.613s.66-.032.845.039c.136.058.045.288-.133.262-.186-.024-.712-.301-.712-.301zm1.034.523.717.09c.055.392-.047 1.057-.304 1.429l-.693-.202c.183-.437.227-.848.28-1.317zm11.573 9.564c0 1.666-.769 2.93-2.048 3.632l.458-.932h-.445l-.59 1.194c-.609.23-1.3.358-2.064.358-2.334 0-2.951.095-3.815.956-.866-.861-1.483-.956-3.815-.956-.759 0-1.45-.123-2.057-.353h.016l.589-1.2h-.443l-.515 1.05a4.217 4.217 0 0 1-.358-.188l.423-.861h-.44l-.313.641c-1-.736-1.588-1.887-1.588-3.34v-5.237h17v5.236h.005zm.474-15.863c-.264.686-.476 1.43-.476 2.173v7.986h-.93c-.42-.409-.776-1.77-.776-1.77-.23.49.034 1.482.28 1.77h-1.196c-.296-.401-.552-1.82-.552-1.82-.359.408-.131 1.51.091 1.82h-.795c-.05-.569.112-1.187.112-1.187-.416-.075-.858-.295-.855-.756.209.196.295.194.586.188l.337-.267c-1.12.037-1.172-1.194-.282-1.77-.887.03-1.55-.5-1.227-1.442-.631-.327-.853-1.396-.388-1.864-.337-.367-.392-1.087-.178-1.576-.447 0-.95-.178-1.23-.485-.02.01-.047.019-.07.026.56-.227 1.033-.583 1.353-1.023h6.196v-.003zm-3.386-3.843c-.921.16-1.714 1.288-2.363 2.306l-.073.118h-.694l-.002.12c-.07.786-.816 1.852-2.46 1.852-.759 0-1.332-.233-1.724-.55a2.04 2.04 0 0 1-.66-.948 1.582 1.582 0 0 1-.073-.354l-.005-.12h-.688l-.074-.118c-.651-1.015-1.444-2.144-2.362-2.306l2.509-1.459 3.082 1.676 3.078-1.676 2.51 1.459zm-2.873-2.179L40.68 16.78V11.55l3.339-1.136-.882 5.071zm-2.716-4.505-3.65-1.443c.308-.733 1.74-1.359 3.65-1.359 1.907 0 3.336.626 3.645 1.359l-3.645 1.442z" fill="#000"/><path fill-rule="evenodd" clip-rule="evenodd" d="m48.534 26.668.008-.4c-1.228-.03-1.51-1.477-1.51-1.477-.359 1.065.578 1.861 1.502 1.877zM46.984 29.12l-.123-.379c-1.046.267-1.588-1.393-1.588-1.393-.335 1.207.832 2.06 1.711 1.773zM47.712 27.581c-1.25.2-1.764-1.256-1.764-1.256-.139.793.374 1.597 1.204 1.68-.188 1.035.772 1.566 1.604 1.197l-.12-.361c-.723.243-1.4-.472-.924-1.26zM46.964 23.427l.01-.401c-1.65-.34-1.512-1.477-1.512-1.477-.356 1.071.58 1.862 1.502 1.878zM36.502 40.07l-.592 1.199h.445l.589-1.199h-.442zM37.395 40.07l-.59 1.199h.448l.584-1.199h-.443zM40.969 40.07l-.59 1.199h.443l.591-1.199h-.444zM41.864 40.07l-.594 1.199h.448l.586-1.199h-.44zM40.076 40.07l-.591 1.199h.445l.588-1.199h-.442zM45.297 41.269h.444l.59-1.199h-.446l-.588 1.199zM38.288 40.07 37.7 41.27h.444l.59-1.199h-.446zM39.179 40.07l-.589 1.199h.448l.588-1.199h-.447zM37.159 33.624c-.081 0-.152.079-.152.18 0 .1.07.181.152.181.084 0 .157-.08.157-.18-.003-.102-.073-.18-.157-.18zM40.421 6.56c1.832 0 3.3.608 4.108 1.26 0 0 .244-1.456 1.063-2.733l-1.476.165-.772-1.645-1.483.773-1.44-1.43-1.439 1.43-1.489-.773-.772 1.645-1.476-.165c.822 1.277 1.063 2.733 1.063 2.733.811-.652 2.282-1.26 4.113-1.26zm-3.446-.654.704-1.492 1.303.694 1.44-1.422 1.439 1.422 1.303-.694.696 1.492.866-.134c-.223.417-.39.78-.544 1.291-.948-.552-2.355-.979-3.76-.979-1.411 0-2.816.427-3.763.98a6.61 6.61 0 0 0-.547-1.292l.863.134z" fill="#000"/><path fill-rule="evenodd" clip-rule="evenodd" d="M41.93 3.62a.394.394 0 0 0 .423-.356c.021-.215-.293-.785-.293-.785s-.468.505-.484.72c-.021.21.141.4.353.421zM44.347 4.497a.388.388 0 0 0 .526-.165c.104-.188.036-.835.036-.835s-.623.28-.724.471a.397.397 0 0 0 .162.53zM38.912 3.62a.394.394 0 0 0 .358-.421c-.02-.215-.484-.72-.484-.72s-.311.573-.293.785a.39.39 0 0 0 .419.356zM36.497 4.497a.394.394 0 0 0 .162-.529c-.1-.19-.725-.47-.725-.47s-.065.646.04.834a.384.384 0 0 0 .523.165zM65.503 17.797c.516-.183.913-.675 1.112-1.13-1.31-.19-4.794-1.653-7.656-.461 1.073-1.019 2.036-1.15 2.127-2.616.445.32 1.196.5 1.62-.262-.296-.872-1.042-.165-1.146-.406-.147-.335.94.102 1.172-1.031-.845-.29-1.096.4-1.248.24-.139-.151.536-.442.04-1.356-.88.516-.422 1.095-.608 1.16-.225.09-.047-.62-1.02-.586-.097 1.044.913 1.078.748 1.243-.202.202-.463-.6-1.198-.193.013.843.696 1.306 1.4 1.107-.116 1.602-1.586 1.304-2.68 3.11 2.318 1.19 3.367 3.263 4.794 4.697.47-.335 1.277-1.822 1.277-1.822 1.544 1.197 2.63.005 2.63.005-.532-.544-.553-.958-1.364-1.699zm-2.25.291c.16.353.476 1.586-.28 2.526-.861-1.72-2.044-3.194-3.002-3.83-.209-.136.116-.374.707-.453 1.782-.338 3.873.416 4.867.68-.463.346-.84.504-1.314.561.723.608 1.251 1.12 1.623 1.692-.699.175-1.094-.268-2.601-1.176zM48.366 44.83V42.87c-1.512.694-3.436 1.257-5.911 1.48l-.113.699c.21.029.477.055.833.078-.916.126-2.102.186-2.75.186-.652 0-1.835-.06-2.753-.186.353-.023.62-.05.83-.078l-.114-.7c-2.475-.222-4.4-.785-5.91-1.479v1.959l-2.052.843c1.52.79 3.268 1.435 5.288 1.956l-.24.819c1.156.34 3.006.686 4.945.686 1.94 0 3.787-.348 4.946-.686l-.239-.82c2.018-.52 3.771-1.164 5.292-1.955l-2.052-.843zm-16.844.887 1.385-.557v-1.595c.89.343 2.056.7 3.731 1.047l-.785 2.558a22.875 22.875 0 0 1-4.33-1.453zm8.9 2.948c-1.563 0-3.088-.233-4.391-.555l.83-2.683c.549.128 1.925.295 3.56.295 1.639 0 3.007-.17 3.56-.295l.831 2.683c-1.308.322-2.83.555-4.39.555zm4.571-1.495-.785-2.558c1.675-.345 2.842-.704 3.731-1.047v1.595l1.382.557a22.775 22.775 0 0 1-4.328 1.453zM16.607 19.491s.806 1.487 1.275 1.822c1.428-1.432 2.48-3.505 4.796-4.697-1.096-1.806-2.567-1.502-2.677-3.11.704.2 1.384-.267 1.4-1.107-.738-.406-1 .4-1.198.194-.165-.17.842-.2.748-1.244-.973-.032-.796.675-1.023.586-.183-.065.275-.646-.607-1.16-.495.917.183 1.205.042 1.357-.15.16-.406-.53-1.248-.241.227 1.133 1.318.696 1.172 1.031-.105.241-.848-.466-1.141.406.419.765 1.172.584 1.614.265.095 1.468 1.055 1.591 2.13 2.613-2.865-1.192-6.348.272-7.664.463.202.453.6.945 1.115 1.123-.811.749-.832 1.162-1.363 1.704 0 0 1.083 1.192 2.63-.005zm-1.622-.225c.374-.57.9-1.086 1.628-1.691-.477-.06-.85-.218-1.317-.563.997-.265 3.09-1.021 4.875-.68.586.078.916.316.701.452-.957.636-2.143 2.11-3.003 3.83-.754-.94-.435-2.17-.28-2.524-1.505.906-1.898 1.349-2.604 1.176zM39.169 18.4v.86c.295-.358.871-.287.871-.287v1.244s-.02.612-.236.874h1.24c-.216-.262-.235-.875-.235-.875v-1.24s.573-.071.87.288v-.862h-2.51V18.4z" fill="#000"/><path d="M86.072 32.477V24.16h4.91v-3.027H77.586v3.027h4.91v8.318h3.576zm9.916-11.345h-3.575v11.345h3.575V21.132zm2.616 0v11.345h3.29V26.21l6.126 6.268h3.05V21.132h-3.289v6.22l-5.983-6.22h-3.194zm19.494 7.055 4.123 4.29h4.6l-5.744-5.91 5.53-5.435h-4.338l-4.171 4.266h-.954v-4.266h-3.456v11.345h3.456v-4.29h.954zm15.835-7.365c-4.648 0-7.437 2.622-7.437 6.006 0 3.385 2.789 6.007 7.437 6.007 4.624 0 7.412-2.622 7.412-6.007 0-3.384-2.788-6.006-7.412-6.006zm0 9.248c-2.312 0-3.79-1.383-3.79-3.242s1.478-3.218 3.79-3.218c2.288 0 3.79 1.36 3.79 3.218 0 1.86-1.502 3.242-3.79 3.242zm20.519-8.938h-11.464v11.345h3.455v-3.956h7.51v-2.503h-7.51v-2.002h8.009v-2.884zm13.012 0h-11.465v11.345h3.457v-3.956h7.508v-2.503h-7.508v-2.002h8.008v-2.884z" fill="#fff"/></g><defs><clipPath id="a"><path fill="#fff" transform="translate(.5 .685)" d="M0 0h179v49.501H0z"/></clipPath></defs></svg>