<svg width="180" height="69" fill="none" xmlns="http://www.w3.org/2000/svg"><path d="M33.866 60.294V58.17c.172-.02.383-.03.535-.03.373 0 .717.078.994.255.258.166.43.43.43.822 0 .313-.105.558-.287.734-.257.265-.678.382-1.098.382-.24 0-.411-.01-.574-.039zm-.668-4.514v4.994c.22.03.582.059 1.05.059.708 0 1.415-.157 1.845-.558.267-.265.43-.617.43-1.087 0-.588-.268-.98-.67-1.224-.362-.235-.85-.333-1.346-.333-.172 0-.478.02-.64.04v-1.342h2.254v-.549h-2.923zm11.551 0-1.691 2.575a17.958 17.958 0 0 0-.965 1.655l-.02-.01c.049-.665.058-1.321.058-2.114V55.78h-.62v5.014h.716l1.634-2.487c.353-.559.716-1.136.965-1.684l.019.01c-.058.636-.058 1.223-.058 2.036v2.134h.631V55.78h-.669zm2.236 0v2.115c0 .803-.038 1.772-.459 2.174a1.194 1.194 0 0 1-.544.264l.086.52c.305 0 .602-.118.793-.236.735-.48.783-1.684.783-2.77v-1.518h1.73v4.465h.678V55.78h-3.067zm4.624 0v2.115c0 .803-.038 1.772-.458 2.174a1.194 1.194 0 0 1-.545.264l.086.52c.306 0 .602-.118.793-.236.736-.48.784-1.684.784-2.77v-1.518h1.73v4.465h.677V55.78H51.61zm7.472 0-1.691 2.575a17.983 17.983 0 0 0-.965 1.655l-.02-.01c.049-.665.058-1.321.058-2.114V55.78h-.63v5.014h.716l1.634-2.487c.353-.559.707-1.136.965-1.684l.02.01c-.058.636-.058 1.223-.058 2.036v2.134h.63V55.78h-.659zm3.335 1.479c.105-.304.181-.607.267-.91h.02c.076.293.152.587.267.91l.506 1.44H61.91l.507-1.44zM62.3 55.78l-1.768 5.014h.698l.544-1.577h1.854l.554 1.577h.717l-1.777-5.014H62.3zm6.555 0v2.096h-2.523V55.78h-.669v5.014h.67v-2.35h2.522v2.35h.678V55.78h-.678zm1.251 0v.549h1.586v4.465h.679v-4.465h1.595v-.549h-3.86zm5.112 4.514V58.17c.086-.02.287-.04.535-.04.697 0 1.395.294 1.395 1.077 0 .754-.64 1.126-1.386 1.126-.238 0-.41-.01-.544-.039zm-.678-4.514v4.994c.22.03.582.059 1.041.059.707 0 1.433-.157 1.854-.588.248-.264.4-.597.4-1.067 0-1.116-.935-1.567-2.015-1.567-.172 0-.468.02-.621.04v-1.87h-.66zm3.888 5.014h.679V55.78h-.679v5.014zm16.205-5.014v2.115c0 .803-.038 1.772-.459 2.174a1.194 1.194 0 0 1-.544.264l.086.52c.305 0 .602-.118.793-.236.736-.48.783-1.684.783-2.77v-1.518h1.73v4.465h.678V55.78h-3.067zm8.905 0v.549h1.586v4.465h.678v-4.465h1.596v-.549h-3.86zm18.899 0v5.014h2.933v-.539h-2.255v-1.811h2.026v-.539h-2.026V56.32h2.141v-.539h-2.819zm7.921 0v5.014h2.933v-.539h-2.255v-1.811h2.026v-.539h-2.026V56.32h2.14v-.539h-2.818zm4.481 4.514V58.17c.172-.02.382-.03.535-.03.373 0 .717.078.994.255.258.166.43.43.43.822 0 .313-.105.558-.287.734-.258.265-.678.382-1.099.382-.239 0-.42-.01-.573-.039zm-.669-4.514v4.994c.22.03.583.059 1.051.059.717 0 1.414-.157 1.844-.558.268-.265.43-.617.43-1.087 0-.588-.267-.98-.669-1.224-.363-.235-.85-.333-1.347-.333-.172 0-.478.02-.64.04v-1.342h2.255v-.549h-2.924zm-96.1 2.478v-1.949a3.01 3.01 0 0 1 .63-.049c.745 0 1.233.323 1.233.98 0 .694-.497 1.066-1.31 1.066-.22 0-.41-.02-.553-.048zm-.67-2.419v4.955h.67v-2.008a2.3 2.3 0 0 0 .544.05c.66 0 1.242-.187 1.596-.55.267-.263.401-.616.401-1.066 0-.45-.172-.813-.459-1.048-.305-.264-.793-.42-1.462-.42-.544-.01-.965.038-1.29.087zm89.518 2.419v-1.949c.115-.03.344-.049.631-.049.745 0 1.232.323 1.232.98 0 .694-.497 1.066-1.309 1.066-.219 0-.401-.02-.554-.048zm-.669-2.419v4.955h.669v-2.008c.153.04.344.05.545.05.659 0 1.242-.187 1.595-.55.268-.263.402-.616.402-1.066 0-.45-.172-.813-.459-1.048-.306-.264-.793-.42-1.462-.42a7.47 7.47 0 0 0-1.29.087zm12.794 2.419v-1.949c.115-.03.344-.049.631-.049.745 0 1.232.323 1.232.98 0 .694-.497 1.066-1.309 1.066-.229 0-.411-.02-.554-.048zm-.678-2.419v4.955h.668v-2.008c.153.04.344.05.545.05.659 0 1.242-.187 1.596-.55.267-.263.401-.616.401-1.066 0-.45-.172-.813-.459-1.048-.305-.264-.793-.42-1.461-.42-.536-.01-.966.038-1.29.087zm-53.334.235.181.48c.277-.166.688-.323 1.08-.323.563 0 .936.284.936.783 0 .51-.535.92-1.223.92H85.7v.49h.306c.669 0 1.414.215 1.414.97 0 .548-.43.95-1.204.95-.43 0-.888-.148-1.165-.304l-.182.509c.411.225.908.323 1.376.323.956 0 1.892-.421 1.892-1.46 0-.724-.535-1.184-1.27-1.252v-.02c.61-.137 1.079-.597 1.079-1.224 0-.773-.63-1.224-1.529-1.224-.573 0-1.032.157-1.385.382zm4.356 2.242c0-1.096.555-2.085 1.672-2.085 1.118 0 1.663 1.038 1.663 2.036 0 1.136-.602 2.086-1.672 2.086-1.06-.01-1.663-.97-1.663-2.037zm-.726.01c0 1.518.965 2.546 2.341 2.546 1.328 0 2.418-.91 2.418-2.644 0-1.488-.918-2.536-2.341-2.536-1.386 0-2.418 1.048-2.418 2.634zm10.615-.01c0-1.096.555-2.085 1.673-2.085 1.118 0 1.662 1.038 1.662 2.036 0 1.136-.602 2.086-1.672 2.086-1.06-.01-1.662-.97-1.662-2.037zm-.716.01c0 1.518.965 2.546 2.341 2.546 1.328 0 2.417-.91 2.417-2.644 0-1.488-.917-2.536-2.341-2.536-1.395 0-2.417 1.048-2.417 2.634zm9.555-.01c0-1.096.554-2.085 1.672-2.085 1.118 0 1.662 1.038 1.662 2.036 0 1.136-.602 2.086-1.672 2.086-1.06-.01-1.662-.97-1.662-2.037zm-.717.01c0 1.518.965 2.546 2.341 2.546 1.328 0 2.417-.91 2.417-2.644 0-1.488-.917-2.536-2.341-2.536-1.385 0-2.417 1.048-2.417 2.634zm10.252 0c0 1.645 1.108 2.536 2.58 2.536.631 0 1.127-.117 1.376-.235l-.144-.51c-.267.128-.687.207-1.098.207-1.271 0-2.007-.794-2.007-2.017 0-1.313.812-2.066 2.035-2.066.43 0 .793.088 1.051.205l.163-.529c-.182-.088-.593-.225-1.242-.225-1.615 0-2.714 1.068-2.714 2.634zm25.177-.01c0-1.096.554-2.085 1.672-2.085 1.118 0 1.662 1.038 1.662 2.036 0 1.136-.602 2.086-1.672 2.086-1.06-.01-1.662-.97-1.662-2.037zm-.717.01c0 1.518.965 2.546 2.341 2.546 1.328 0 2.417-.91 2.417-2.644 0-1.488-.917-2.536-2.341-2.536-1.385 0-2.417 1.048-2.417 2.634zM78.63 11.407h13.415c3.143 0 5.522.558 7.108 1.655 1.577 1.106 2.37 2.947 2.37 5.512 0 1.46-.201 2.673-.602 3.682-.401.998-1.013 1.811-1.844 2.428-.84.627-1.892 1.087-3.182 1.351-1.28.274-2.828.411-4.624.411H78.63V11.407zm-2.656-2.731v37.333h2.656v-16.84h12.746c1.003 0 1.873.175 2.608.548a6.674 6.674 0 0 1 1.988 1.478c.583.627 1.08 1.361 1.51 2.203.43.842.83 1.733 1.184 2.693l3.621 9.928h2.934l-3.765-10.163c-.325-.882-.621-1.675-.879-2.35a11.595 11.595 0 0 0-.879-1.87 9.24 9.24 0 0 0-1.147-1.606c-.44-.5-1.012-1.028-1.69-1.567 1.26-.264 2.36-.705 3.305-1.312a8.245 8.245 0 0 0 2.331-2.173 9.141 9.141 0 0 0 1.376-2.898c.297-1.087.44-2.243.44-3.496 0-1.997-.325-3.642-1.003-4.935-.66-1.282-1.558-2.29-2.676-3.015-1.108-.735-2.398-1.234-3.831-1.518a22.009 22.009 0 0 0-4.443-.43H75.974v-.01zM45.103 42.739c-1.835-.823-3.507-2.047-5.007-3.691-3.01-3.29-4.51-7.187-4.51-11.7 0-2.253.373-4.358 1.128-6.306.755-1.949 1.882-3.75 3.382-5.385 1.5-1.645 3.172-2.879 5.007-3.692 1.834-.822 3.84-1.223 6.029-1.223 2.178 0 4.204.41 6.057 1.243 1.864.832 3.564 2.085 5.112 3.75 1.49 1.616 2.618 3.398 3.363 5.326.745 1.939 1.118 4.034 1.118 6.286 0 2.262-.382 4.367-1.137 6.306-.755 1.948-1.901 3.74-3.42 5.385-1.52 1.645-3.201 2.878-5.055 3.69-1.844.823-3.86 1.225-6.038 1.225-2.188.01-4.195-.402-6.03-1.214zm-1.109-33.31c-2.188.95-4.185 2.37-5.98 4.27-1.797 1.899-3.154 3.984-4.052 6.256-.898 2.281-1.347 4.739-1.347 7.382 0 2.644.449 5.111 1.347 7.393.898 2.271 2.245 4.357 4.051 6.256 1.796 1.9 3.793 3.32 5.981 4.269 2.188.95 4.568 1.43 7.138 1.43 2.55 0 4.92-.48 7.118-1.43 2.188-.96 4.204-2.389 6.029-4.288 1.825-1.91 3.191-3.995 4.108-6.267.918-2.271 1.376-4.729 1.376-7.353 0-2.624-.458-5.081-1.376-7.353-.917-2.271-2.283-4.357-4.108-6.266-1.825-1.91-3.832-3.339-6.03-4.289C56.053 8.48 53.684 8 51.133 8c-2.57 0-4.95.48-7.138 1.43zm78.721 33.31c-1.834-.823-3.506-2.047-5.007-3.691-3.009-3.29-4.509-7.187-4.509-11.7 0-2.253.372-4.358 1.127-6.306.755-1.949 1.882-3.75 3.382-5.385 1.501-1.645 3.173-2.879 5.007-3.692 1.835-.822 3.851-1.223 6.029-1.223 2.179 0 4.204.41 6.058 1.243 1.863.832 3.564 2.085 5.111 3.75 1.491 1.616 2.618 3.398 3.364 5.326.745 1.939 1.118 4.034 1.118 6.286 0 2.262-.383 4.367-1.137 6.306-.755 1.948-1.902 3.74-3.421 5.385-1.519 1.645-3.201 2.878-5.054 3.69-1.844.823-3.86 1.225-6.039 1.225-2.178.01-4.185-.402-6.029-1.214zm-1.099-33.31c-2.188.95-4.185 2.38-5.981 4.27-1.796 1.899-3.153 3.984-4.051 6.256-.898 2.281-1.347 4.739-1.347 7.382 0 2.644.449 5.111 1.347 7.393.898 2.271 2.255 4.357 4.051 6.256 1.796 1.9 3.793 3.32 5.981 4.269 2.188.95 4.567 1.43 7.138 1.43 2.551 0 4.92-.48 7.118-1.43 2.188-.96 4.204-2.389 6.029-4.288 1.825-1.91 3.191-3.995 4.108-6.267.918-2.271 1.376-4.729 1.376-7.353 0-2.624-.458-5.081-1.376-7.353-.917-2.271-2.283-4.357-4.108-6.266-1.825-1.91-3.832-3.339-6.029-4.289-2.198-.96-4.567-1.43-7.118-1.43-2.571-.009-4.95.47-7.138 1.42z" fill="#fff"/></svg>