<svg width="180" height="34" fill="none" xmlns="http://www.w3.org/2000/svg"><path d="M154.947 8.673v3.296h6.812v13.296h3.898V11.97h6.875V8.674h-17.585v-.001zm-8.976 13.291h-4.995c-2.231 0-3.149-.477-3.149-3.01v-4.113c0-2.605.542-3.063 3.149-3.063h4.995c2.261 0 3.127.745 3.127 2.487h3.901c0-4.662-2.419-5.786-6.275-5.786h-6.475c-4.796 0-6.32 1.367-6.32 6.22v4.706c0 4.447 1.433 5.858 5.943 5.858h7.254c4.807 0 5.873-1.315 5.892-5.738h-3.92c0 2.007-.799 2.436-3.127 2.436v.003zm-32.544 3.3h16.651v-3.132h-12.752v-3.804h12.351v-2.892h-12.352v-3.634h12.753V8.674h-16.651v16.59zM92.942 11.97h6.812v13.295h3.898V11.97h6.879V8.674H92.942v3.296zm-5.823 2.776c0-2.417-.796-2.968-3.12-2.968h-5.024c-2.443 0-3.132.62-3.132 2.988v4.425c0 2.173.689 2.772 3.057 2.772h5.17c2.483 0 3.05-.545 3.05-2.798v-4.419zm3.899-.362v5.212c0 4.135-1.335 5.669-5.894 5.669h-7.16c-4.374 0-6.01-1.648-6.01-5.67v-5.21c0-4.539 1.573-5.906 6.01-5.906h7.162c4.032 0 5.892 1.242 5.892 5.905zm-34.077 7.579h-.016l-5.399-13.29h-6.71v16.592h3.901v-13.22l5.557 13.22h5.323l5.561-13.235v13.235h3.898V8.673H62.34l-5.4 13.291v-.001zM24.32 25.265h16.647v-3.133H28.214v-3.804h12.35v-2.892h-12.35v-3.634h12.751V8.674H24.323v16.59h-.003zM7.468 8.673H21.44v3.296H11.357v13.296H7.468V8.673z" fill="#fff"/></svg>