<svg width="120" height="120" fill="none" xmlns="http://www.w3.org/2000/svg"><rect width="120" height="120" rx="60" fill="#EE322C"/><path d="M49.623 55.984c-4.708-4.026-7.005-8.932-6.891-14.717.113-5.842 2.439-10.436 6.976-13.782 4.083-2.949 8.989-4.026 14.717-3.232 5.728.794 10.095 3.09 13.101 6.89.964 1.191.908 2.836-.17 4.935-1.02 2.098-2.382 3.544-4.083 4.338-1.702.794-3.318.482-4.85-.935-.85-1.192-1.9-2.326-3.147-3.403a22.667 22.667 0 0 0-4.083-2.808c-1.475-.794-2.978-1.077-4.51-.85-1.474.226-2.75 1.049-3.828 2.467-1.701 2.212-1.162 5.047 1.617 8.507 2.835 3.403 5.756 5.586 8.762 6.55.85-.453 1.928-.85 3.233-1.19a19.162 19.162 0 0 1 3.998-.766c1.361-.114 2.496.085 3.403.595.964.51 1.418 1.361 1.361 2.552 0 2.836-1.332 5.7-3.998 8.593-1.191.907-2.24 1.587-3.148 2.041-.907.454-2.297.68-4.168.68-1.815-.056-3.8-.623-5.955-1.7-4.084 1.02-7.657 3.005-10.72 5.954-3.005 2.893-3.884 5.842-2.637 8.848.908 2.155 2.383 3.8 4.424 4.934 2.099 1.078 4.509 1.56 7.231 1.446 3.517-.113 7.118-1.162 10.804-3.147 3.687-2.042 6.664-4.566 8.933-7.572 2.155-2.949 3.743-5.246 4.764-6.89.68-1.305 1.475-1.9 2.382-1.787.907.057 1.446.766 1.616 2.127.17.964-.198 2.552-1.106 4.764-1.417 3.403-3.204 6.493-5.36 9.272-2.154 2.723-4.48 4.991-6.975 6.806a41.972 41.972 0 0 1-7.742 4.424c-2.722 1.191-5.444 2.013-8.166 2.467-2.666.454-5.218.652-7.657.596-2.382 0-4.594-.256-6.636-.766-2.041-.454-3.856-1.56-5.444-3.318-1.588-1.815-2.439-3.743-2.552-5.785-.51-5.955.624-10.917 3.403-14.887 2.835-4.027 7.202-8.11 13.1-12.25z" fill="#fff"/></svg>