<svg width="34" height="43" fill="none" xmlns="http://www.w3.org/2000/svg"><g clip-path="url(#a)"><path d="M17.001 21.66a6.206 6.206 0 0 1 .75-4.746 6.43 6.43 0 0 1 3.934-2.86 6.43 6.43 0 0 1 4.815.698 6.206 6.206 0 0 1 2.874 3.85 6.206 6.206 0 0 1-.75 4.746 6.43 6.43 0 0 1-3.934 2.86 6.43 6.43 0 0 1-4.815-.698 6.205 6.205 0 0 1-2.874-3.85z" fill="#1ABCFE"/><path d="M7.633 36.875a6.206 6.206 0 0 1 .75-4.746 6.431 6.431 0 0 1 3.934-2.861l6.186-1.529 1.502 6.078a6.206 6.206 0 0 1-.75 4.745 6.43 6.43 0 0 1-3.934 2.862 6.431 6.431 0 0 1-4.814-.7 6.206 6.206 0 0 1-2.874-3.85z" fill="#0ACF83"/><path d="M12.495 3.426 15.5 15.582l6.187-1.53a6.431 6.431 0 0 0 3.934-2.86 6.206 6.206 0 0 0 .75-4.746 6.206 6.206 0 0 0-2.874-3.85 6.43 6.43 0 0 0-4.814-.7l-6.187 1.53z" fill="#FF7262"/><path d="M1.624 12.562a6.205 6.205 0 0 0 2.874 3.85 6.43 6.43 0 0 0 4.815.7l6.186-1.53-3.004-12.156-6.186 1.53a6.43 6.43 0 0 0-3.935 2.86 6.206 6.206 0 0 0-.75 4.746z" fill="#F24E1E"/><path d="M4.629 24.719a6.206 6.206 0 0 0 2.874 3.85 6.43 6.43 0 0 0 4.814.698l6.187-1.528-3.005-12.156-6.186 1.529a6.43 6.43 0 0 0-3.935 2.861 6.206 6.206 0 0 0-.75 4.746z" fill="#A259FF"/></g><defs><clipPath id="a"><path fill="#fff" transform="rotate(-13.882 26.693 2.74)" d="M0 0h25.49v37.565H0z"/></clipPath></defs></svg>