<svg width="44" height="45" fill="none" xmlns="http://www.w3.org/2000/svg"><g clip-path="url(#a)"><mask id="b" style="mask-type:alpha" maskUnits="userSpaceOnUse" x="5" y="5" width="34" height="34"><path d="M16.229 37.664c8.64 3.315 18.332-1.003 21.647-9.644 3.315-8.64-1.003-18.332-9.644-21.647C19.592 3.058 9.9 7.376 6.585 16.017c-3.315 8.64 1.003 18.332 9.644 21.647z" fill="#fff"/></mask><g mask="url(#b)"><path d="m12.586.371 31.291 12.004-12.003 31.29L.583 31.663 12.586.372z" fill="url(#c)"/><path d="m5.2 19.625 9.629 3.693-4.617 12.035L.584 31.66 5.2 19.625z" fill="url(#d)"/><path d="M16.306 19.468c.775-2.022 1.163-3.033 1.853-3.654a3.867 3.867 0 0 1 2.183-.973c.924-.097 1.935.29 3.957 1.067l6.258 2.4-8.31 21.663-12.035-4.617 6.094-15.886z" fill="url(#e)"/><path d="m34.25 8.68 9.629 3.693-12.004 31.291-9.628-3.693L34.25 8.68z" fill="url(#f)"/></g></g><defs><linearGradient id="c" x1="26.309" y1="31.658" x2="14.298" y2="-14.229" gradientUnits="userSpaceOnUse"><stop stop-color="#4643B9"/><stop offset="1" stop-color="#1E8AFF"/></linearGradient><linearGradient id="d" x1="12.444" y1="31.433" x2="-14.115" y2="15.558" gradientUnits="userSpaceOnUse"><stop stop-color="#FF002E"/><stop offset="1" stop-color="#FFADA1"/></linearGradient><linearGradient id="e" x1="65.991" y1="111.286" x2="95.633" y2="55.44" gradientUnits="userSpaceOnUse"><stop stop-color="#3C3BA0"/><stop offset=".49" stop-color="#1E8AFF"/><stop offset="1" stop-color="#00B2FF"/></linearGradient><linearGradient id="f" x1="33.633" y1="10.289" x2="55.481" y2="34.823" gradientUnits="userSpaceOnUse"><stop stop-color="#FFEA1A"/><stop offset="1" stop-color="#FFB800"/></linearGradient><clipPath id="a"><path fill="#fff" transform="rotate(20.988 5.297 34.163)" d="M0 0h33.514v34.803H0z"/></clipPath></defs></svg>