<svg width="47" height="47" fill="none" xmlns="http://www.w3.org/2000/svg"><g clip-path="url(#a)"><path d="m17.45 2.374 20.958 5.22c4.42 1.1 7.115 5.587 6.013 10.012l-5.224 20.977c-1.102 4.425-5.586 7.124-10.007 6.023l-20.957-5.22c-4.422-1.1-7.116-5.587-6.014-10.012L7.443 8.397c1.102-4.425 5.586-7.124 10.008-6.023z" fill="#E8FE55"/><path d="m33.984 11.4-4.06-1.012 1.9 6.79-5.96-7.8-4.06-1.012 1.91 8.2-5.97-9.211-4.06-1.011L15.44 16.61l-8.67 17.5 4.06 1.012 12.721-17.9-8.661 18.911 4.06 1.011 12.71-19.298-8.65 20.31 4.06 1.01 13.206-21.292-6.29-6.476z" fill="#1C1C1C"/></g><defs><clipPath id="a"><path fill="#fff" transform="rotate(13.985 3.202 38.562)" d="M0 0h38.17v38.17H0z"/></clipPath></defs></svg>