<svg width="44" height="44" fill="none" xmlns="http://www.w3.org/2000/svg"><path d="M25.797 40.115c9.908-2.136 16.207-11.9 14.071-21.807-2.136-9.907-11.9-16.207-21.807-14.07C8.154 6.373 1.854 16.136 3.991 26.043 6.127 35.951 15.89 42.25 25.797 40.114z" fill="#4A8CFF"/><path d="m9.208 19.042 1.818 8.43a3.53 3.53 0 0 0 4.203 2.686l12.289-2.65a.642.642 0 0 0 .496-.758l-1.818-8.43a3.53 3.53 0 0 0-4.203-2.686L9.708 18.283a.643.643 0 0 0-.5.76zm17.873-.413 4.275-4.8c.361-.46.723-.442.865.219l2.437 11.301c.162.752-.275.75-.699.555L28.09 23.3l-1.008-4.67z" fill="#fff"/></svg>