<svg width="49" height="151" fill="none" xmlns="http://www.w3.org/2000/svg"><g clip-path="url(#a)"><g clip-path="url(#b)"><g clip-path="url(#c)" fill-rule="evenodd" clip-rule="evenodd"><path d="M59.628 154.985c2.23 2.046 2.3 2.652 2.2 3.124.053.454-.081.623-.367.809-.285.186-.722.39-1.025.425-.303.035-.758.087-1.078-.03-.32-.117-.658-.385-3.074-2.716-2.585-2.465-7.249-6.993-11.493-11.876-4.226-4.732-8.033-9.819-11.793-15.832s-7.187-13.139-9.788-19.745c-2.45-6.624-3.902-12.596-4.989-19.376-1.085-6.78-1.77-14.068-1.813-21.122-.043-7.054.706-13.892 2.195-20.968 1.64-7.094 4.038-14.275 5.368-18.725 1.33-4.45 1.476-5.847 1.687-8.02.362-2.19.824-4.852 3.05-8.177 2.227-3.324 6.085-7.144 8.416-9.56C39.455.78 40.294.07 40.684.792c.39.723.517 3.163-1.034 7.024-1.4 3.844-4.344 8.94-6.588 12.113-2.244 3.173-3.975 4.14-5.164 5.81-1.206 1.52-2.023 3.763-3.154 7.269-1.132 3.506-2.562 8.427-3.554 13.145-1.144 4.735-2.003 9.283-2.302 14.689-.3 5.405-.175 11.836.44 18.517.614 6.682 1.7 13.462 4.137 21.315 2.436 7.853 6.358 16.61 10.933 24.371 4.405 7.627 9.615 14.241 14.197 19.392 4.547 4.848 8.803 8.503 11.033 10.548z" fill="url(#d)"/><path d="M19.933 102c-1.543-2.739-4.168-6.887-7.16-10.226-2.992-3.34-6.084-6.207-8.093-7.664-2.026-1.608-2.836-1.976-3.325-2.227-.49-.25-.64-.233-.21 2.173.43 2.406 1.575 7.032 3.256 10.981 1.681 3.95 3.765 7.394 6.6 9.37 2.854 2.128 6.308 2.805 8.329 3.033 2.021.228 2.307.042 2.371-.733.064-.774-.226-1.969-1.768-4.707z" fill="url(#e)"/><path d="M29.055 123.97c-2.114-2.366-5.747-5.939-9.578-8.567-3.698-2.798-7.594-4.652-10.022-5.754-2.428-1.102-3.372-1.301-3.844-1.4-.623-.082-.757.087.261 2.272 1.019 2.184 3.224 6.688 5.78 10.231 2.572 3.694 5.495 6.427 8.733 7.897 3.39 1.452 7.06 1.337 9.028 1.111 1.969-.226 2.389-.582 2.302-1.339.064-.774-.547-2.085-2.66-4.451z" fill="url(#f)"/><path d="M41.583 142.171c-2.667-1.842-7.104-4.401-11.437-6.052-4.35-1.802-8.614-2.846-11.124-3.325-2.662-.461-3.74-.491-4.194-.439-.605.07-.74.239.867 2.202 1.607 1.964 4.803 5.74 8.215 8.724s6.87 5.042 10.459 5.55c3.587.509 7.322-.381 9.238-1.061 1.917-.681 2.168-1.17 1.93-1.91-.39-.722-1.287-1.847-3.954-3.689z" fill="url(#g)"/><path d="M30 102.84c1.237-2.598 2.718-7.065 3.477-11.142.911-4.094 1.065-8.101 1.106-10.408.025-2.458-.062-3.216-.283-3.804-.204-.437-.221-.588-1.713 1.118s-4.173 5.083-6.231 8.542c-2.058 3.459-3.341 6.982-3.279 10.198.08 3.366 1.506 6.425 2.455 8.004.948 1.579 1.286 1.847 1.857 1.475.723-.39 1.544-1.252 2.611-3.983z" fill="url(#h)"/><path d="M39.134 122.202c.73-2.999 1.722-7.717 1.975-12.196.252-4.479-.218-8.569-.513-11.144-.296-2.574-.703-3.448-.907-3.885-.204-.437-.373-.571-1.678 1.42-1.306 1.992-3.597 6.091-5.149 9.953-1.533 4.012-2.327 7.786-1.776 11.252.552 3.466 2.583 6.456 3.835 8 1.252 1.544 1.723 1.643 2.277 1.119s1.19-1.671 1.936-4.519z" fill="url(#i)"/></g></g><g clip-path="url(#j)" fill-rule="evenodd" clip-rule="evenodd"><path d="M59.503 154.985c2.23 2.046 2.3 2.652 2.2 3.124.053.454-.081.623-.367.809-.285.186-.722.39-1.025.425-.303.035-.758.087-1.078-.03-.32-.117-.658-.385-3.074-2.716-2.585-2.465-7.249-6.993-11.493-11.876-4.226-4.732-8.033-9.819-11.793-15.832s-7.187-13.139-9.788-19.745c-2.45-6.624-3.902-12.596-4.989-19.376-1.085-6.78-1.77-14.068-1.813-21.122-.043-7.054.706-13.892 2.195-20.968 1.64-7.094 4.038-14.275 5.368-18.725 1.33-4.45 1.476-5.847 1.687-8.02.362-2.19.824-4.852 3.05-8.177C30.81 9.432 34.668 5.612 37 3.196 39.33.78 40.17.07 40.56.792c.39.723.517 3.163-1.034 7.024-1.4 3.844-4.344 8.94-6.588 12.113-2.244 3.173-3.975 4.14-5.164 5.81-1.206 1.52-2.023 3.763-3.154 7.269-1.132 3.506-2.562 8.427-3.554 13.145-1.144 4.735-2.003 9.283-2.302 14.689-.3 5.405-.175 11.836.44 18.517.614 6.682 1.7 13.462 4.137 21.315 2.436 7.853 6.358 16.61 10.933 24.371 4.405 7.627 9.615 14.241 14.197 19.392 4.547 4.848 8.803 8.503 11.033 10.548z" fill="url(#k)"/><path d="M21.291 34.769c.444-2.814.68-7.444.495-11.72-.336-4.258-1.091-8.16-1.655-10.398-.581-2.388-.971-3.11-1.326-3.53-.204-.437-.373-.571-1.358 1.537-1.003 1.956-2.84 6.004-3.92 9.964-1.079 3.96-1.267 7.665-.447 10.793.97 3.111 3.119 5.78 4.505 7.156 1.385 1.375 1.688 1.34 2.242.816.536-.675 1.02-1.805 1.464-4.618z" fill="url(#l)"/><path d="M16.023 57.015c-.348-3.03-1.19-7.69-2.417-11.692-1.396-4.136-3.043-7.783-4.364-9.933-1.17-2.168-1.711-2.873-2.2-3.123-.356-.42-.507-.403-1.02 1.805-.514 2.207-1.221 6.739-1.206 10.88.016 4.142.602 7.91 2.313 10.783 1.711 2.873 4.564 5 6.2 5.886 1.655 1.038 2.109.986 2.494.328.216-.792.53-2.056.2-4.934z" fill="url(#m)"/><path d="M15.719 79.756c-.954-2.96-2.705-7.515-4.992-11.395-2.136-3.898-4.808-7.12-6.415-9.085-1.607-1.963-2.434-2.482-2.771-2.75-.49-.25-.64-.234-.683 2.073-.042 2.307.195 7.037.985 11.243.942 4.188 2.285 7.87 4.736 10.504 2.283 2.5 5.672 3.952 7.442 4.67 1.922.7 2.36.496 2.424-.279.215-.792.228-2.021-.726-4.98z" fill="url(#n)"/><path d="M19.808 102c-1.543-2.739-4.168-6.887-7.16-10.226-2.992-3.34-6.084-6.207-8.093-7.664-2.026-1.608-2.836-1.976-3.325-2.227-.49-.25-.64-.233-.21 2.173.43 2.406 1.575 7.032 3.256 10.981 1.681 3.95 3.765 7.394 6.6 9.37 2.854 2.128 6.308 2.805 8.329 3.033 2.021.228 2.307.042 2.371-.733.064-.774-.226-1.969-1.768-4.707z" fill="url(#o)"/><path d="M28.395 39.175c2.453-1.356 6.299-3.946 9.504-6.77 3.205-2.823 5.635-5.711 7.092-7.72 1.475-1.857 1.842-2.667 2.093-3.156.25-.49.082-.623-2.021-.228-2.103.395-6.426 1.505-10.09 3-3.665 1.496-6.805 3.545-8.647 6.211-1.842 2.667-2.689 5.987-2.934 7.857-.246 1.87-.042 2.306.715 2.22.64.233 1.835-.058 4.288-1.414z" fill="url(#p)"/><path d="M24.45 60.952c2.232-1.944 5.403-5.07 7.932-8.43 2.53-3.36 4.436-6.801 5.573-8.927.986-2.108 1.336-3.07 1.283-3.523.1-.472.082-.624-1.969.226-2.05.85-5.983 2.682-9.41 4.917-3.274 2.218-6.042 4.838-7.395 7.755-1.335 3.07-1.407 6.454-1.35 8.288.058 1.835.413 2.255 1.17 2.168.758-.087 1.917-.68 4.167-2.474z" fill="url(#q)"/><path d="M25.266 81.428c1.725-2.347 4.034-6.295 5.585-10.156 1.703-3.879 2.648-7.67 3.145-10.03.496-2.358.543-3.284.49-3.738-.051-.455-.22-.589-1.916.68-1.696 1.27-5.204 4.127-7.768 7.184-2.716 3.075-4.657 6.213-5.218 9.347-.543 3.285.294 6.564.806 8.347.512 1.783 1 2.033 1.59 1.812.588-.22 1.56-1.1 3.286-3.446z" fill="url(#r)"/><path d="M29.875 102.84c1.237-2.598 2.718-7.065 3.477-11.142.911-4.094 1.065-8.101 1.106-10.408.025-2.458-.062-3.216-.283-3.804-.204-.437-.221-.588-1.713 1.118s-4.173 5.083-6.231 8.542c-2.058 3.459-3.341 6.982-3.279 10.198.08 3.366 1.506 6.425 2.455 8.004.948 1.579 1.286 1.847 1.857 1.475.723-.39 1.544-1.252 2.611-3.983z" fill="url(#s)"/></g></g><defs><linearGradient id="n" x1="6.744" y1="55.786" x2="10.225" y2="86.086" gradientUnits="userSpaceOnUse"><stop stop-color="#424242"/><stop offset="1" stop-color="#262626"/></linearGradient><linearGradient id="d" x1="25.989" y1="2.164" x2="44.262" y2="161.201" gradientUnits="userSpaceOnUse"><stop stop-color="#424242"/><stop offset="1" stop-color="#262626"/></linearGradient><linearGradient id="f" x1="17.101" y1="106.886" x2="19.856" y2="130.858" gradientUnits="userSpaceOnUse"><stop stop-color="#424242"/><stop offset="1" stop-color="#262626"/></linearGradient><linearGradient id="g" x1="29.011" y1="130.726" x2="31.194" y2="149.728" gradientUnits="userSpaceOnUse"><stop stop-color="#424242"/><stop offset="1" stop-color="#262626"/></linearGradient><linearGradient id="h" x1="27.623" y1="77.936" x2="30.908" y2="106.524" gradientUnits="userSpaceOnUse"><stop stop-color="#424242"/><stop offset="1" stop-color="#262626"/></linearGradient><linearGradient id="i" x1="34.348" y1="95.291" x2="37.974" y2="126.856" gradientUnits="userSpaceOnUse"><stop stop-color="#424242"/><stop offset="1" stop-color="#262626"/></linearGradient><linearGradient id="k" x1="25.864" y1="2.164" x2="44.137" y2="161.201" gradientUnits="userSpaceOnUse"><stop stop-color="#424242"/><stop offset="1" stop-color="#262626"/></linearGradient><linearGradient id="l" x1="15.31" y1="9.23" x2="18.819" y2="39.771" gradientUnits="userSpaceOnUse"><stop stop-color="#424242"/><stop offset="1" stop-color="#262626"/></linearGradient><linearGradient id="m" x1="8.11" y1="31.899" x2="11.664" y2="62.83" gradientUnits="userSpaceOnUse"><stop stop-color="#424242"/><stop offset="1" stop-color="#262626"/></linearGradient><linearGradient id="e" x1="9.741" y1="80.781" x2="12.918" y2="108.436" gradientUnits="userSpaceOnUse"><stop stop-color="#424242"/><stop offset="1" stop-color="#262626"/></linearGradient><linearGradient id="o" x1="9.616" y1="80.781" x2="12.793" y2="108.436" gradientUnits="userSpaceOnUse"><stop stop-color="#424242"/><stop offset="1" stop-color="#262626"/></linearGradient><linearGradient id="p" x1="34.31" y1="22.479" x2="36.247" y2="39.333" gradientUnits="userSpaceOnUse"><stop stop-color="#424242"/><stop offset="1" stop-color="#262626"/></linearGradient><linearGradient id="q" x1="28.07" y1="40.95" x2="30.517" y2="62.25" gradientUnits="userSpaceOnUse"><stop stop-color="#424242"/><stop offset="1" stop-color="#262626"/></linearGradient><linearGradient id="r" x1="25.848" y1="58.145" x2="28.833" y2="84.121" gradientUnits="userSpaceOnUse"><stop stop-color="#424242"/><stop offset="1" stop-color="#262626"/></linearGradient><linearGradient id="s" x1="27.498" y1="77.936" x2="30.783" y2="106.524" gradientUnits="userSpaceOnUse"><stop stop-color="#424242"/><stop offset="1" stop-color="#262626"/></linearGradient><clipPath id="a"><path fill="#fff" d="M0 0h49v151H0z"/></clipPath><clipPath id="b"><path fill="#fff" transform="translate(3 98.563)" d="M0 0h32v67H0z"/></clipPath><clipPath id="c"><path fill="#fff" transform="rotate(-6.554 911.536 22.422)" d="M0 0h53.077v61.296H0z"/></clipPath><clipPath id="j"><path fill="#fff" transform="rotate(-6.554 48.87 72.884)" d="M0 0h53.077v98.772H0z"/></clipPath></defs></svg>