<svg width="72" height="166" fill="none" xmlns="http://www.w3.org/2000/svg"><g clip-path="url(#a)" fill-rule="evenodd" clip-rule="evenodd"><path d="M67.621 155.425c2.23 2.045 2.3 2.651 2.2 3.123.053.454-.081.623-.367.809-.285.187-.722.39-1.025.425-.303.035-.757.087-1.078-.029-.32-.117-.658-.385-3.074-2.716-2.585-2.466-7.248-6.994-11.492-11.877-4.227-4.732-8.034-9.819-11.794-15.832s-7.187-13.138-9.788-19.745c-2.449-6.624-3.902-12.595-4.988-19.376-1.086-6.78-1.77-14.068-1.813-21.122-.044-7.054.705-13.892 2.194-20.968 1.64-7.094 4.038-14.275 5.368-18.724 1.33-4.45 1.477-5.848 1.687-8.02.362-2.19.824-4.852 3.05-8.177 2.227-3.325 6.085-7.144 8.416-9.56 2.331-2.417 3.17-3.127 3.56-2.404.39.722.517 3.163-1.034 7.024-1.4 3.844-4.344 8.939-6.588 12.112-2.244 3.174-3.974 4.14-5.163 5.811-1.207 1.52-2.024 3.762-3.155 7.268-1.132 3.506-2.562 8.427-3.554 13.145-1.144 4.735-2.002 9.284-2.302 14.69-.3 5.405-.175 11.835.44 18.517.614 6.681 1.7 13.462 4.137 21.315 2.437 7.853 6.358 16.61 10.933 24.37 4.406 7.627 9.616 14.241 14.197 19.392 4.547 4.849 8.803 8.503 11.033 10.549z" fill="url(#b)"/><path d="M27.927 102.439c-1.542-2.738-4.167-6.887-7.16-10.226-2.992-3.339-6.083-6.206-8.092-7.663-2.027-1.609-2.836-1.976-3.325-2.227-.49-.25-.64-.233-.211 2.173.43 2.405 1.575 7.03 3.257 10.981 1.681 3.95 3.765 7.394 6.6 9.37 2.854 2.127 6.308 2.804 8.329 3.032 2.02.229 2.306.042 2.37-.732.065-.775-.226-1.969-1.768-4.708z" fill="url(#c)"/><path d="M37.05 124.409c-2.113-2.366-5.746-5.938-9.577-8.567-3.698-2.798-7.594-4.652-10.022-5.754-2.429-1.102-3.372-1.301-3.844-1.4-.623-.082-.757.087.26 2.272 1.02 2.185 3.225 6.689 5.78 10.231 2.573 3.694 5.496 6.428 8.734 7.897 3.389 1.452 7.059 1.337 9.028 1.111 1.968-.226 2.388-.581 2.301-1.338.065-.775-.547-2.086-2.66-4.452z" fill="url(#d)"/><path d="M49.577 142.613c-2.667-1.842-7.105-4.402-11.438-6.052-4.35-1.802-8.613-2.847-11.123-3.326-2.662-.461-3.74-.491-4.194-.439-.606.07-.74.239.867 2.203 1.607 1.963 4.802 5.739 8.215 8.723 3.411 2.984 6.87 5.042 10.458 5.551 3.588.508 7.322-.381 9.239-1.062 1.917-.68 2.167-1.17 1.929-1.909-.39-.723-1.287-1.847-3.953-3.689z" fill="url(#e)"/><path d="M37.998 103.277c1.236-2.597 2.718-7.064 3.477-11.141.91-4.094 1.064-8.102 1.106-10.409.024-2.458-.063-3.215-.284-3.803-.203-.437-.22-.589-1.713 1.117-1.492 1.706-4.173 5.083-6.23 8.542-2.058 3.46-3.342 6.983-3.28 10.198.08 3.367 1.506 6.426 2.455 8.005.949 1.579 1.287 1.847 1.858 1.474.722-.39 1.544-1.251 2.611-3.983z" fill="url(#f)"/><path d="M47.128 122.638c.73-3 1.722-7.718 1.975-12.197.252-4.479-.217-8.568-.513-11.143-.296-2.575-.703-3.449-.907-3.886-.204-.437-.373-.57-1.678 1.42-1.306 1.992-3.597 6.092-5.148 9.953-1.534 4.013-2.328 7.787-1.777 11.253.552 3.466 2.584 6.455 3.835 7.999 1.252 1.544 1.724 1.644 2.277 1.12.554-.524 1.19-1.671 1.936-4.519z" fill="url(#g)"/><path d="M60.022 140.031c.106-3.081.004-7.98-.652-12.355s-2.035-8.359-2.92-10.713c-.884-2.354-1.442-3.21-1.646-3.647-.355-.42-.524-.554-1.34 1.688-.817 2.243-2.299 6.709-2.89 10.921-.74 4.228-.609 8.049.683 11.277 1.291 3.227 3.877 5.693 5.396 6.899 1.52 1.207 1.992 1.306 2.376.648.403-.507.87-1.788.993-4.718z" fill="url(#h)"/></g><g clip-path="url(#i)" fill-rule="evenodd" clip-rule="evenodd"><path d="M67.621 155.425c2.23 2.045 2.3 2.651 2.2 3.123.053.454-.081.623-.367.809-.285.187-.722.39-1.025.425-.303.035-.757.087-1.078-.029-.32-.117-.658-.385-3.074-2.716-2.585-2.466-7.248-6.994-11.492-11.877-4.227-4.732-8.034-9.819-11.794-15.832s-7.187-13.138-9.788-19.745c-2.449-6.624-3.902-12.595-4.988-19.376-1.086-6.78-1.77-14.068-1.813-21.122-.044-7.054.705-13.892 2.194-20.968 1.64-7.094 4.038-14.275 5.368-18.724 1.33-4.45 1.477-5.848 1.687-8.02.362-2.19.824-4.852 3.05-8.177 2.227-3.325 6.085-7.144 8.416-9.56 2.331-2.417 3.17-3.127 3.56-2.404.39.722.517 3.163-1.034 7.024-1.4 3.844-4.344 8.939-6.588 12.112-2.244 3.174-3.974 4.14-5.163 5.811-1.207 1.52-2.024 3.762-3.155 7.268-1.132 3.506-2.562 8.427-3.554 13.145-1.144 4.735-2.002 9.284-2.302 14.69-.3 5.405-.175 11.835.44 18.517.614 6.681 1.7 13.462 4.137 21.315 2.437 7.853 6.358 16.61 10.933 24.37 4.406 7.627 9.616 14.241 14.197 19.392 4.547 4.849 8.803 8.503 11.033 10.549z" fill="url(#j)"/><path d="M29.41 35.21c.444-2.813.679-7.444.495-11.72-.336-4.257-1.091-8.16-1.655-10.397-.582-2.389-.972-3.111-1.327-3.531-.203-.437-.372-.571-1.358 1.537-1.003 1.957-2.84 6.004-3.919 9.965-1.08 3.96-1.268 7.664-.448 10.793.971 3.11 3.12 5.78 4.505 7.155 1.386 1.375 1.689 1.34 2.242.816.537-.675 1.02-1.805 1.465-4.618z" fill="url(#k)"/><path d="M24.14 57.453c-.349-3.03-1.191-7.69-2.418-11.692-1.396-4.136-3.043-7.784-4.364-9.934-1.17-2.167-1.711-2.872-2.2-3.123-.355-.42-.507-.402-1.02 1.805-.514 2.208-1.221 6.74-1.206 10.88.016 4.142.602 7.911 2.313 10.784 1.711 2.872 4.565 5 6.201 5.886 1.654 1.037 2.108.985 2.493.327.216-.792.53-2.056.2-4.934z" fill="url(#l)"/><path d="M23.837 80.2c-.954-2.96-2.705-7.516-4.992-11.396-2.136-3.898-4.808-7.12-6.415-9.084-1.607-1.964-2.433-2.483-2.771-2.75-.49-.252-.64-.234-.683 2.072-.041 2.307.195 7.037.985 11.243.942 4.189 2.286 7.87 4.737 10.504 2.282 2.5 5.671 3.952 7.442 4.67 1.921.7 2.358.496 2.423-.279.216-.792.228-2.02-.726-4.98z" fill="url(#m)"/><path d="M27.927 102.439c-1.542-2.738-4.167-6.887-7.16-10.226-2.992-3.339-6.083-6.206-8.092-7.663-2.027-1.609-2.836-1.976-3.325-2.227-.49-.25-.64-.233-.211 2.173.43 2.405 1.575 7.03 3.257 10.981 1.681 3.95 3.765 7.394 6.6 9.37 2.854 2.127 6.308 2.804 8.329 3.032 2.02.229 2.306.042 2.37-.732.065-.775-.226-1.969-1.768-4.708z" fill="url(#n)"/><path d="M36.514 39.61c2.453-1.355 6.299-3.946 9.504-6.77 3.205-2.823 5.635-5.71 7.092-7.72 1.475-1.857 1.842-2.667 2.093-3.156.25-.489.082-.623-2.021-.228-2.103.395-6.426 1.506-10.09 3.001-3.665 1.495-6.805 3.544-8.647 6.211-1.842 2.667-2.689 5.987-2.934 7.856-.246 1.87-.042 2.307.715 2.22.641.233 1.835-.057 4.288-1.413z" fill="url(#o)"/><path d="M32.572 61.394c2.231-1.945 5.402-5.071 7.931-8.43 2.53-3.36 4.436-6.802 5.573-8.928.986-2.108 1.335-3.069 1.283-3.523.1-.472.082-.623-1.969.226-2.05.85-5.983 2.683-9.41 4.918-3.274 2.217-6.042 4.837-7.395 7.755-1.335 3.069-1.407 6.453-1.35 8.288.058 1.835.413 2.254 1.17 2.167.758-.087 1.917-.68 4.167-2.473z" fill="url(#p)"/><path d="M33.39 81.863c1.724-2.346 4.033-6.295 5.584-10.156 1.703-3.878 2.648-7.67 3.145-10.029.496-2.358.543-3.285.49-3.739-.052-.454-.22-.588-1.916.68-1.696 1.27-5.203 4.128-7.768 7.185-2.716 3.074-4.657 6.213-5.218 9.346-.543 3.285.294 6.565.806 8.348.512 1.782 1 2.033 1.59 1.812.588-.221 1.56-1.1 3.286-3.447z" fill="url(#q)"/><path d="M37.998 103.277c1.236-2.597 2.718-7.064 3.477-11.141.91-4.094 1.064-8.102 1.106-10.409.024-2.458-.063-3.215-.284-3.803-.203-.437-.22-.589-1.713 1.117-1.492 1.706-4.173 5.083-6.23 8.542-2.058 3.46-3.342 6.983-3.28 10.198.08 3.367 1.506 6.426 2.455 8.005.949 1.579 1.287 1.847 1.858 1.474.722-.39 1.544-1.251 2.611-3.983z" fill="url(#r)"/></g><defs><linearGradient id="l" x1="16.226" y1="32.336" x2="19.78" y2="63.267" gradientUnits="userSpaceOnUse"><stop stop-color="#424242"/><stop offset="1" stop-color="#262626"/></linearGradient><linearGradient id="b" x1="33.982" y1="2.603" x2="52.255" y2="161.64" gradientUnits="userSpaceOnUse"><stop stop-color="#424242"/><stop offset="1" stop-color="#262626"/></linearGradient><linearGradient id="d" x1="25.097" y1="107.325" x2="27.851" y2="131.297" gradientUnits="userSpaceOnUse"><stop stop-color="#424242"/><stop offset="1" stop-color="#262626"/></linearGradient><linearGradient id="e" x1="37.004" y1="131.167" x2="39.188" y2="150.169" gradientUnits="userSpaceOnUse"><stop stop-color="#424242"/><stop offset="1" stop-color="#262626"/></linearGradient><linearGradient id="f" x1="35.621" y1="78.374" x2="38.905" y2="106.961" gradientUnits="userSpaceOnUse"><stop stop-color="#424242"/><stop offset="1" stop-color="#262626"/></linearGradient><linearGradient id="g" x1="42.342" y1="95.727" x2="45.968" y2="127.291" gradientUnits="userSpaceOnUse"><stop stop-color="#424242"/><stop offset="1" stop-color="#262626"/></linearGradient><linearGradient id="h" x1="52.856" y1="113.254" x2="56.547" y2="145.377" gradientUnits="userSpaceOnUse"><stop stop-color="#424242"/><stop offset="1" stop-color="#262626"/></linearGradient><linearGradient id="j" x1="33.982" y1="2.603" x2="52.255" y2="161.64" gradientUnits="userSpaceOnUse"><stop stop-color="#424242"/><stop offset="1" stop-color="#262626"/></linearGradient><linearGradient id="k" x1="23.429" y1="9.672" x2="26.938" y2="40.212" gradientUnits="userSpaceOnUse"><stop stop-color="#424242"/><stop offset="1" stop-color="#262626"/></linearGradient><linearGradient id="c" x1="17.735" y1="81.22" x2="20.913" y2="108.875" gradientUnits="userSpaceOnUse"><stop stop-color="#424242"/><stop offset="1" stop-color="#262626"/></linearGradient><linearGradient id="m" x1="14.862" y1="56.229" x2="18.343" y2="86.529" gradientUnits="userSpaceOnUse"><stop stop-color="#424242"/><stop offset="1" stop-color="#262626"/></linearGradient><linearGradient id="n" x1="17.735" y1="81.22" x2="20.913" y2="108.875" gradientUnits="userSpaceOnUse"><stop stop-color="#424242"/><stop offset="1" stop-color="#262626"/></linearGradient><linearGradient id="o" x1="42.429" y1="22.914" x2="44.366" y2="39.769" gradientUnits="userSpaceOnUse"><stop stop-color="#424242"/><stop offset="1" stop-color="#262626"/></linearGradient><linearGradient id="p" x1="36.191" y1="41.391" x2="38.639" y2="62.692" gradientUnits="userSpaceOnUse"><stop stop-color="#424242"/><stop offset="1" stop-color="#262626"/></linearGradient><linearGradient id="q" x1="33.971" y1="58.58" x2="36.956" y2="84.557" gradientUnits="userSpaceOnUse"><stop stop-color="#424242"/><stop offset="1" stop-color="#262626"/></linearGradient><linearGradient id="r" x1="35.621" y1="78.374" x2="38.905" y2="106.961" gradientUnits="userSpaceOnUse"><stop stop-color="#424242"/><stop offset="1" stop-color="#262626"/></linearGradient><clipPath id="a"><path fill="#fff" transform="rotate(-6.554 919.376 -47.189)" d="M0 0h53.077v61.296H0z"/></clipPath><clipPath id="i"><path fill="#fff" transform="rotate(-6.554 56.767 2.207)" d="M0 0h53.077v98.772H0z"/></clipPath></defs></svg>