<svg width="72" height="166" fill="none" xmlns="http://www.w3.org/2000/svg"><g clip-path="url(#a)" fill-rule="evenodd" clip-rule="evenodd"><path d="M3.623 155.417c-2.23 2.046-2.299 2.652-2.2 3.123-.052.455.082.623.368.81.285.186.722.39 1.025.424.303.035.757.087 1.077-.029.32-.117.658-.385 3.074-2.716 2.585-2.465 7.248-6.993 11.492-11.875 4.226-4.732 8.033-9.818 11.792-15.831 3.76-6.012 7.187-13.137 9.787-19.743 2.45-6.624 3.903-12.594 4.988-19.374 1.086-6.78 1.77-14.067 1.813-21.12.044-7.054-.705-13.891-2.194-20.967-1.64-7.093-4.037-14.274-5.367-18.723s-1.477-5.847-1.687-8.02c-.363-2.189-.824-4.85-3.05-8.175-2.227-3.325-6.085-7.144-8.415-9.56-2.331-2.416-3.17-3.126-3.56-2.403-.39.722-.517 3.163 1.034 7.023 1.4 3.844 4.343 8.939 6.587 12.112 2.244 3.173 3.974 4.14 5.163 5.81 1.207 1.52 2.023 3.762 3.155 7.267 1.132 3.506 2.56 8.427 3.553 13.144 1.144 4.735 2.002 9.283 2.302 14.688.3 5.405.175 11.835-.44 18.516-.614 6.68-1.7 13.46-4.136 21.313-2.437 7.853-6.358 16.608-10.932 24.369-4.406 7.626-9.615 14.239-14.197 19.39-4.546 4.848-8.802 8.502-11.032 10.547z" fill="url(#b)"/><path d="M43.314 102.438c1.542-2.739 4.167-6.887 7.159-10.226 2.992-3.338 6.083-6.206 8.092-7.663 2.026-1.608 2.836-1.975 3.325-2.226.489-.25.64-.233.21 2.172-.43 2.406-1.575 7.031-3.256 10.98-1.681 3.95-3.765 7.394-6.6 9.37-2.853 2.127-6.307 2.804-8.328 3.032-2.02.228-2.306.042-2.37-.733-.065-.774.226-1.968 1.768-4.706z" fill="url(#c)"/><path d="M34.192 124.406c2.113-2.366 5.745-5.938 9.577-8.567 3.697-2.797 7.592-4.651 10.02-5.753 2.429-1.102 3.372-1.3 3.844-1.4.623-.082.757.087-.261 2.272-1.018 2.185-3.224 6.688-5.779 10.23-2.572 3.694-5.495 6.427-8.733 7.896-3.389 1.452-7.058 1.338-9.027 1.111-1.968-.226-2.388-.581-2.301-1.338-.064-.775.546-2.085 2.66-4.451z" fill="url(#d)"/><path d="M21.666 142.608c2.667-1.842 7.104-4.401 11.437-6.051 4.35-1.802 8.612-2.847 11.122-3.326 2.662-.461 3.74-.491 4.194-.438.606.069.74.238-.867 2.202-1.606 1.963-4.802 5.739-8.214 8.723-3.412 2.983-6.87 5.041-10.458 5.549-3.587.509-7.321-.38-9.238-1.061-1.916-.681-2.167-1.17-1.928-1.909.39-.723 1.286-1.847 3.953-3.689z" fill="url(#e)"/><path d="M33.244 103.275c-1.236-2.597-2.718-7.064-3.477-11.14-.91-4.094-1.064-8.101-1.105-10.408-.025-2.458.062-3.215.283-3.803.204-.437.221-.589 1.713 1.117s4.173 5.083 6.23 8.541c2.058 3.46 3.341 6.982 3.279 10.197-.08 3.367-1.506 6.425-2.455 8.004-.948 1.579-1.286 1.847-1.857 1.475-.722-.39-1.544-1.252-2.611-3.983z" fill="url(#f)"/><path d="M24.115 122.633c-.73-2.999-1.722-7.716-1.974-12.195-.253-4.479.217-8.568.513-11.142.295-2.575.703-3.449.906-3.885.204-.437.373-.571 1.678 1.42 1.306 1.991 3.597 6.09 5.148 9.951 1.534 4.012 2.328 7.786 1.776 11.252-.552 3.466-2.583 6.455-3.834 7.999-1.252 1.544-1.724 1.643-2.277 1.119-.554-.524-1.19-1.671-1.936-4.519z" fill="url(#g)"/><path d="M11.222 140.027c-.106-3.081-.003-7.98.652-12.354.657-4.374 2.035-8.359 2.92-10.712.883-2.354 1.442-3.21 1.646-3.647.355-.42.524-.554 1.34 1.688.817 2.242 2.298 6.709 2.888 10.92.742 4.228.61 8.048-.681 11.276-1.292 3.227-3.877 5.692-5.396 6.898-1.52 1.207-1.992 1.306-2.376.648-.402-.506-.869-1.788-.993-4.717z" fill="url(#h)"/></g><g clip-path="url(#i)" fill-rule="evenodd" clip-rule="evenodd"><path d="M3.623 155.417c-2.23 2.046-2.3 2.652-2.2 3.123-.052.455.082.623.367.81.286.186.723.39 1.025.424.303.035.758.087 1.078-.029.32-.117.658-.385 3.074-2.716 2.585-2.465 7.248-6.993 11.491-11.875 4.227-4.732 8.033-9.818 11.793-15.831 3.76-6.012 7.187-13.137 9.787-19.743 2.449-6.624 3.902-12.594 4.988-19.374 1.086-6.78 1.77-14.067 1.813-21.12.043-7.054-.706-13.891-2.194-20.967-1.64-7.093-4.038-14.274-5.368-18.723s-1.476-5.847-1.687-8.02c-.362-2.189-.824-4.85-3.05-8.175-2.227-3.325-6.084-7.144-8.415-9.56-2.33-2.416-3.17-3.126-3.56-2.403-.39.722-.517 3.163 1.034 7.023 1.4 3.844 4.344 8.939 6.588 12.112 2.244 3.173 3.974 4.14 5.163 5.81 1.206 1.52 2.023 3.762 3.154 7.267 1.132 3.506 2.561 8.427 3.554 13.144 1.144 4.735 2.002 9.283 2.302 14.688.3 5.405.174 11.835-.44 18.516-.614 6.68-1.7 13.46-4.137 21.313-2.436 7.853-6.358 16.608-10.932 24.369-4.405 7.626-9.615 14.239-14.196 19.39-4.546 4.848-8.802 8.502-11.032 10.547z" fill="url(#j)"/><path d="M41.831 35.214c-.444-2.813-.68-7.444-.495-11.719.336-4.257 1.091-8.16 1.655-10.397.581-2.388.971-3.11 1.326-3.53.204-.437.373-.571 1.358 1.537 1.003 1.956 2.84 6.003 3.919 9.963 1.08 3.96 1.267 7.665.448 10.793-.971 3.11-3.12 5.779-4.505 7.154-1.386 1.375-1.688 1.34-2.242.817-.536-.676-1.02-1.805-1.464-4.618z" fill="url(#k)"/><path d="M47.101 57.454c.348-3.029 1.19-7.688 2.417-11.69 1.396-4.136 3.043-7.783 4.364-9.933 1.17-2.167 1.71-2.872 2.2-3.123.355-.42.507-.402 1.02 1.805.514 2.207 1.22 6.738 1.205 10.88-.015 4.14-.602 7.91-2.313 10.782-1.71 2.872-4.564 4.999-6.2 5.885-1.653 1.038-2.108.985-2.492.327-.216-.792-.532-2.055-.2-4.933z" fill="url(#l)"/><path d="M47.403 80.198c.954-2.96 2.705-7.515 4.992-11.395 2.136-3.898 4.807-7.12 6.414-9.083 1.607-1.964 2.433-2.483 2.771-2.75.49-.252.64-.234.682 2.072.042 2.307-.194 7.036-.984 11.242-.942 4.188-2.285 7.87-4.736 10.503-2.282 2.5-5.671 3.952-7.442 4.67-1.921.7-2.358.495-2.423-.28-.215-.791-.228-2.02.726-4.98z" fill="url(#m)"/><path d="M43.314 102.438c1.542-2.739 4.167-6.887 7.159-10.226 2.992-3.338 6.083-6.206 8.092-7.663 2.026-1.608 2.836-1.975 3.325-2.226.489-.25.64-.233.21 2.172-.43 2.406-1.575 7.031-3.256 10.98-1.681 3.95-3.765 7.394-6.6 9.37-2.853 2.127-6.307 2.804-8.328 3.032-2.02.228-2.306.042-2.37-.733-.065-.774.226-1.968 1.768-4.706z" fill="url(#n)"/><path d="M34.727 39.615c-2.452-1.356-6.298-3.946-9.503-6.77-3.204-2.822-5.634-5.71-7.091-7.719-1.475-1.857-1.842-2.666-2.093-3.156-.25-.489-.082-.623 2.021-.228 2.103.395 6.425 1.506 10.09 3 3.663 1.496 6.804 3.545 8.646 6.211 1.841 2.667 2.687 5.986 2.933 7.856.245 1.87.042 2.306-.715 2.22-.641.233-1.835-.058-4.288-1.414z" fill="url(#o)"/><path d="M38.67 61.396c-2.232-1.944-5.402-5.07-7.932-8.43-2.53-3.36-4.435-6.8-5.572-8.926-.985-2.108-1.335-3.069-1.283-3.523-.1-.472-.082-.623 1.969.226 2.05.85 5.982 2.682 9.408 4.917 3.275 2.218 6.043 4.837 7.395 7.755 1.335 3.069 1.407 6.453 1.35 8.287-.058 1.835-.413 2.254-1.17 2.167-.757-.087-1.917-.68-4.166-2.473z" fill="url(#p)"/><path d="M37.852 81.863c-1.725-2.346-4.033-6.294-5.584-10.155-1.703-3.878-2.648-7.67-3.145-10.028-.496-2.358-.543-3.285-.49-3.739.052-.454.22-.588 1.916.68 1.696 1.27 5.203 4.128 7.767 7.184 2.716 3.074 4.657 6.212 5.218 9.346.543 3.284-.294 6.564-.806 8.346-.512 1.783-1 2.034-1.59 1.813-.587-.222-1.56-1.1-3.286-3.447z" fill="url(#q)"/><path d="M33.243 103.275c-1.236-2.597-2.717-7.064-3.476-11.14-.91-4.094-1.064-8.101-1.106-10.408-.024-2.458.063-3.215.284-3.803.203-.437.22-.589 1.712 1.117s4.173 5.083 6.23 8.541c2.058 3.46 3.341 6.982 3.279 10.197-.08 3.367-1.505 6.425-2.454 8.004-.949 1.579-1.286 1.847-1.857 1.475-.723-.39-1.544-1.252-2.611-3.983z" fill="url(#r)"/></g><defs><linearGradient id="l" x1="55.013" y1="32.34" x2="51.46" y2="63.268" gradientUnits="userSpaceOnUse"><stop stop-color="#424242"/><stop offset="1" stop-color="#262626"/></linearGradient><linearGradient id="b" x1="37.26" y1="2.61" x2="18.988" y2="161.633" gradientUnits="userSpaceOnUse"><stop stop-color="#424242"/><stop offset="1" stop-color="#262626"/></linearGradient><linearGradient id="d" x1="46.144" y1="107.324" x2="43.39" y2="131.293" gradientUnits="userSpaceOnUse"><stop stop-color="#424242"/><stop offset="1" stop-color="#262626"/></linearGradient><linearGradient id="e" x1="34.238" y1="131.163" x2="32.055" y2="150.164" gradientUnits="userSpaceOnUse"><stop stop-color="#424242"/><stop offset="1" stop-color="#262626"/></linearGradient><linearGradient id="f" x1="35.621" y1="78.374" x2="32.337" y2="106.959" gradientUnits="userSpaceOnUse"><stop stop-color="#424242"/><stop offset="1" stop-color="#262626"/></linearGradient><linearGradient id="g" x1="28.901" y1="95.725" x2="25.275" y2="127.287" gradientUnits="userSpaceOnUse"><stop stop-color="#424242"/><stop offset="1" stop-color="#262626"/></linearGradient><linearGradient id="h" x1="18.387" y1="113.253" x2="14.697" y2="145.372" gradientUnits="userSpaceOnUse"><stop stop-color="#424242"/><stop offset="1" stop-color="#262626"/></linearGradient><linearGradient id="j" x1="37.259" y1="2.61" x2="18.988" y2="161.633" gradientUnits="userSpaceOnUse"><stop stop-color="#424242"/><stop offset="1" stop-color="#262626"/></linearGradient><linearGradient id="k" x1="47.812" y1="9.677" x2="44.303" y2="40.216" gradientUnits="userSpaceOnUse"><stop stop-color="#424242"/><stop offset="1" stop-color="#262626"/></linearGradient><linearGradient id="c" x1="53.505" y1="81.22" x2="50.327" y2="108.873" gradientUnits="userSpaceOnUse"><stop stop-color="#424242"/><stop offset="1" stop-color="#262626"/></linearGradient><linearGradient id="m" x1="56.377" y1="56.229" x2="52.896" y2="86.527" gradientUnits="userSpaceOnUse"><stop stop-color="#424242"/><stop offset="1" stop-color="#262626"/></linearGradient><linearGradient id="n" x1="53.505" y1="81.22" x2="50.327" y2="108.873" gradientUnits="userSpaceOnUse"><stop stop-color="#424242"/><stop offset="1" stop-color="#262626"/></linearGradient><linearGradient id="o" x1="28.813" y1="22.92" x2="26.876" y2="39.773" gradientUnits="userSpaceOnUse"><stop stop-color="#424242"/><stop offset="1" stop-color="#262626"/></linearGradient><linearGradient id="p" x1="35.05" y1="41.395" x2="32.603" y2="62.694" gradientUnits="userSpaceOnUse"><stop stop-color="#424242"/><stop offset="1" stop-color="#262626"/></linearGradient><linearGradient id="q" x1="37.27" y1="58.583" x2="34.286" y2="84.557" gradientUnits="userSpaceOnUse"><stop stop-color="#424242"/><stop offset="1" stop-color="#262626"/></linearGradient><linearGradient id="r" x1="35.621" y1="78.374" x2="32.336" y2="106.959" gradientUnits="userSpaceOnUse"><stop stop-color="#424242"/><stop offset="1" stop-color="#262626"/></linearGradient><clipPath id="a"><path fill="#fff" transform="scale(-1 1) rotate(-6.554 883.742 574.88)" d="M0 0h53.072v61.291H0z"/></clipPath><clipPath id="i"><path fill="#fff" transform="scale(-1 1) rotate(-6.554 21.199 624.268)" d="M0 0h53.072v98.764H0z"/></clipPath></defs></svg>