<svg width="12" height="13" fill="none" xmlns="http://www.w3.org/2000/svg"><g clip-path="url(#a)"><path d="M12 6.872a.335.335 0 0 1-.303.334 6.001 6.001 0 0 0-5.363 5.363.335.335 0 0 1-.667 0A6.001 6.001 0 0 0 .303 7.205a.335.335 0 0 1 0-.666 6 6 0 0 0 5.364-5.364.335.335 0 0 1 .667 0 6 6 0 0 0 5.363 5.364c.172.017.303.16.303.333z" fill="url(#b)"/></g><defs><linearGradient id="b" x1="0" y1=".872" x2="10.714" y2="17.157" gradientUnits="userSpaceOnUse"><stop stop-color="#1D1D1D"/><stop offset="1" stop-color="#787878"/></linearGradient><clipPath id="a"><path fill="#fff" transform="translate(0 .872)" d="M0 0h12v12H0z"/></clipPath></defs></svg>