<svg width="13" height="13" viewBox="0 0 13 13" fill="none" xmlns="http://www.w3.org/2000/svg">
<g id="Frame" clip-path="url(#clip0_97_16)">
<path id="Vector" d="M12.1218 6.50046C12.1218 6.67315 11.9904 6.81648 11.8187 6.83372C9.91588 7.02462 8.27532 8.10461 7.31782 9.65197C6.85222 10.4055 6.54783 11.2704 6.45534 12.197C6.4382 12.3688 6.29488 12.5 6.12229 12.5C5.94962 12.5 5.80637 12.3687 5.78917 12.1968C5.50593 9.36757 3.25514 7.11683 0.424987 6.83364C0.253177 6.81645 0.121826 6.67319 0.121826 6.50052C0.121826 6.32785 0.253185 6.18455 0.425003 6.16736C3.25605 5.88424 5.50607 3.63423 5.78919 0.803177C5.80637 0.63136 5.94963 0.5 6.12231 0.5C6.29498 0.5 6.43827 0.631354 6.45546 0.803167C6.73861 3.63334 8.98854 5.88414 11.8187 6.16735C11.9905 6.18454 12.1218 6.32779 12.1218 6.50046Z" fill="url(#paint0_linear_97_16)"/>
</g>
<defs>
<linearGradient id="paint0_linear_97_16" x1="0.121826" y1="0.5" x2="9.97897" y2="12.5" gradientUnits="userSpaceOnUse">
<stop stop-color="#E8FE55"/>
<stop offset="1" stop-color="#F9FCE0"/>
</linearGradient>
<clipPath id="clip0_97_16">
<rect width="12" height="12" fill="white" transform="translate(0.121826 0.5)"/>
</clipPath>
</defs>
</svg>
