<svg width="12" height="13" viewBox="0 0 12 13" fill="none" xmlns="http://www.w3.org/2000/svg">
<g id="Frame" clip-path="url(#clip0_41_227)">
<path id="Vector" d="M12 6.37229C12 6.54498 11.8686 6.68831 11.6968 6.70555C9.79406 6.89645 8.15349 7.97644 7.196 9.5238C6.7304 10.2773 6.42601 11.1423 6.33351 12.0688C6.31637 12.2406 6.17306 12.3718 6.00046 12.3718C5.82779 12.3718 5.68455 12.2405 5.66734 12.0687C5.3841 9.2394 3.13331 6.98866 0.303161 6.70547C0.131351 6.68827 0 6.54502 0 6.37235C0 6.19968 0.131359 6.05637 0.303177 6.03919C3.13423 5.75606 5.38425 3.50605 5.66737 0.675003C5.68455 0.503186 5.82781 0.371826 6.00048 0.371826C6.17315 0.371826 6.31645 0.50318 6.33363 0.674993C6.61678 3.50516 8.86671 5.75597 11.6968 6.03918C11.8687 6.05636 12 6.19962 12 6.37229Z" fill="url(#paint0_linear_41_227)"/>
</g>
<defs>
<linearGradient id="paint0_linear_41_227" x1="0" y1="0.371826" x2="9.85714" y2="12.3718" gradientUnits="userSpaceOnUse">
<stop stop-color="#E51336"/>
<stop offset="1" stop-color="#DE8796"/>
</linearGradient>
<clipPath id="clip0_41_227">
<rect width="12" height="12" fill="white" transform="translate(0 0.371826)"/>
</clipPath>
</defs>
</svg>
