<svg width="12" height="13" viewBox="0 0 12 13" fill="none" xmlns="http://www.w3.org/2000/svg">
<g id="Frame" clip-path="url(#clip0_137_6706)">
<path id="Vector" d="M12 6.31345C12 6.48614 11.8686 6.62947 11.6968 6.64671C9.79406 6.83761 8.15349 7.9176 7.196 9.46496C6.7304 10.2185 6.42601 11.0834 6.33351 12.01C6.31637 12.1818 6.17306 12.313 6.00046 12.313C5.82779 12.313 5.68455 12.1817 5.66734 12.0098C5.3841 9.18056 3.13331 6.92982 0.303161 6.64663C0.131351 6.62944 0 6.48618 0 6.31351C0 6.14084 0.131359 5.99753 0.303177 5.98035C3.13423 5.69723 5.38425 3.44722 5.66737 0.616165C5.68455 0.444348 5.82781 0.312988 6.00048 0.312988C6.17315 0.312988 6.31645 0.444342 6.33363 0.616155C6.61678 3.44633 8.86671 5.69713 11.6968 5.98034C11.8687 5.99753 12 6.14078 12 6.31345Z" fill="url(#paint0_linear_137_6706)"/>
</g>
<defs>
<linearGradient id="paint0_linear_137_6706" x1="0" y1="0.312988" x2="9.85714" y2="12.313" gradientUnits="userSpaceOnUse">
<stop stop-color="white"/>
<stop offset="1" stop-color="#ADADAD"/>
</linearGradient>
<clipPath id="clip0_137_6706">
<rect width="12" height="12" fill="white" transform="translate(0 0.312988)"/>
</clipPath>
</defs>
</svg>
