<svg width="75" height="75" fill="none" xmlns="http://www.w3.org/2000/svg"><rect x=".594" y="13.584" width="61.39" height="62.148" rx="9.5" transform="rotate(-12.215 .594 13.584)" fill="#161616"/><rect x=".594" y="13.584" width="61.39" height="62.148" rx="9.5" transform="rotate(-12.215 .594 13.584)" stroke="#2B2B2B"/><path d="m27.957 52.544 1.647 7.604 7.897-1.71c1.316-.284 2.36-1.123 3.047-2.19.688-1.067 1.05-2.218.734-3.68l-3.07-14.186-7.898 1.71c-1.316.285-2.36 1.123-3.047 2.19-.688 1.068-1.05 2.218-.734 3.68l1.424 6.582zM22.544 27.536l-1.647-7.604 7.898-1.71c1.316-.285 2.612.047 3.68.734 1.067.688 1.874 1.585 2.19 3.047l3.071 14.186-7.897 1.71c-1.316.285-2.613-.047-3.68-.735-1.068-.687-1.874-1.584-2.19-3.047l-1.425-6.58zM51.32 45.19l1.204 5.557-5.704 1.235a3.505 3.505 0 0 1-2.708-.486c-.89-.573-1.34-1.24-1.562-2.264l-2.247-10.384 5.703-1.234a3.504 3.504 0 0 1 2.708.485c.89.573 1.34 1.24 1.562 2.265l1.045 4.826z" fill="#00AD42"/></svg>