<svg width="73" height="73" fill="none" xmlns="http://www.w3.org/2000/svg"><rect x="9.56" y=".566" width="63" height="63" rx="9.5" transform="rotate(8.207 9.56 .566)" fill="#161616"/><rect x="9.56" y=".566" width="63" height="63" rx="9.5" transform="rotate(8.207 9.56 .566)" stroke="#2B2B2B"/><g clip-path="url(#a)"><path d="m27.89 14.832 22.402 3.23c4.725.682 8.008 5.076 7.326 9.806L54.384 50.29c-.682 4.73-5.073 8.017-9.798 7.336l-22.401-3.231c-4.726-.682-8.009-5.075-7.327-9.806l3.234-22.421c.682-4.73 5.073-8.018 9.799-7.336z" fill="#E8FE55"/><path d="m46.081 22.5-4.34-.627 2.698 6.88-7.037-7.506-4.34-.625 2.856 8.348-7.196-8.974-4.34-.626 2.913 10.52-7.193 19.16 4.34.627 11.375-20.005-7.036 20.63 4.34.627 11.215-21.462-6.875 22.087 4.34.626 11.522-23.592-7.242-6.089z" fill="#1C1C1C"/></g><defs><clipPath id="a"><path fill="#fff" transform="rotate(8.207 -85.064 141.304)" d="M0 0h40v40H0z"/></clipPath></defs></svg>