<svg width="76" height="76" fill="none" xmlns="http://www.w3.org/2000/svg"><rect x=".568" y="10.163" width="65" height="65" rx="9.5" transform="rotate(-8.488 .568 10.163)" fill="#161616"/><rect x=".568" y="10.163" width="65" height="65" rx="9.5" transform="rotate(-8.488 .568 10.163)" stroke="#2B2B2B"/><path d="M40.61 58.28c11.47-1.712 19.381-12.4 17.67-23.87-1.712-11.471-12.4-19.382-23.87-17.67-11.471 1.711-19.382 12.398-17.67 23.87C18.45 52.08 29.137 59.99 40.61 58.28z" fill="#4A8CFF"/><path d="m23.213 32.996 1.456 9.76a4.038 4.038 0 0 0 4.603 3.376L43.5 44.01a.735.735 0 0 0 .622-.83l-1.456-9.76a4.038 4.038 0 0 0-4.603-3.377l-14.224 2.123a.737.737 0 0 0-.626.83zm20.44.841 5.235-5.168c.446-.499.858-.451.972.314l1.953 13.084c.13.87-.37.837-.84.583l-6.512-3.405-.807-5.408z" fill="#fff"/></svg>