<svg width="71" height="71" fill="none" xmlns="http://www.w3.org/2000/svg"><rect x="9.194" y=".565" width="60.954" height="61.247" rx="9.5" transform="rotate(8.099 9.194 .565)" fill="#161616"/><rect x="9.194" y=".565" width="60.954" height="61.247" rx="9.5" transform="rotate(8.099 9.194 .565)" stroke="#2B2B2B"/><g clip-path="url(#a)"><path d="M24.002 20.727a6.318 6.318 0 0 0 1.246 4.73 6.547 6.547 0 0 0 4.28 2.495l6.423.914 1.796-12.622-6.424-.914a6.548 6.548 0 0 0-4.805 1.202 6.318 6.318 0 0 0-2.517 4.195z" fill="#F24E1E"/><path d="M37.747 16.244 35.95 28.866l6.423.915a6.547 6.547 0 0 0 4.806-1.203 6.318 6.318 0 0 0 2.516-4.194 6.318 6.318 0 0 0-1.246-4.73 6.548 6.548 0 0 0-4.28-2.495l-6.423-.915z" fill="#FF7262"/><path d="M22.205 33.35a6.319 6.319 0 0 0 1.247 4.73 6.548 6.548 0 0 0 4.279 2.494l6.424.914 1.796-12.622-6.424-.914a6.548 6.548 0 0 0-4.805 1.202 6.318 6.318 0 0 0-2.517 4.195z" fill="#A259FF"/><path d="M35.053 35.177a6.318 6.318 0 0 1 2.516-4.194 6.548 6.548 0 0 1 4.805-1.203 6.548 6.548 0 0 1 4.28 2.495 6.318 6.318 0 0 1 1.246 4.73 6.318 6.318 0 0 1-2.516 4.195 6.548 6.548 0 0 1-4.806 1.203 6.547 6.547 0 0 1-4.279-2.495 6.319 6.319 0 0 1-1.246-4.73z" fill="#1ABCFE"/><path d="M20.41 45.971a6.318 6.318 0 0 1 2.516-4.195 6.547 6.547 0 0 1 4.805-1.202l6.424.914-.898 6.311a6.318 6.318 0 0 1-2.517 4.195 6.548 6.548 0 0 1-4.805 1.202 6.548 6.548 0 0 1-4.28-2.494 6.319 6.319 0 0 1-1.246-4.73z" fill="#0ACF83"/></g><defs><clipPath id="a"><path fill="#fff" transform="rotate(8.099 -89.367 183.065)" d="M0 0h25.954v38.247H0z"/></clipPath></defs></svg>